<?xml version="1.0" encoding="UTF-8" standalone="no"?>
<!-- Created with Inkscape (http://www.inkscape.org/) -->

<svg
   width="210mm"
   height="297mm"
   viewBox="0 0 210 297"
   version="1.1"
   id="svg5"
   xml:space="preserve"
   inkscape:version="1.2.2 (b0a8486541, 2022-12-01)"
   sodipodi:docname="joke.svg"
   xmlns:inkscape="http://www.inkscape.org/namespaces/inkscape"
   xmlns:sodipodi="http://sodipodi.sourceforge.net/DTD/sodipodi-0.dtd"
   xmlns="http://www.w3.org/2000/svg"
   xmlns:svg="http://www.w3.org/2000/svg"><sodipodi:namedview
     id="namedview7"
     pagecolor="#ffffff"
     bordercolor="#000000"
     borderopacity="0.25"
     inkscape:showpageshadow="2"
     inkscape:pageopacity="0.0"
     inkscape:pagecheckerboard="0"
     inkscape:deskcolor="#d1d1d1"
     inkscape:document-units="mm"
     showgrid="false"
     inkscape:zoom="6.8737763"
     inkscape:cx="43.644132"
     inkscape:cy="1097.6499"
     inkscape:window-width="1920"
     inkscape:window-height="1007"
     inkscape:window-x="0"
     inkscape:window-y="0"
     inkscape:window-maximized="1"
     inkscape:current-layer="layer1" /><defs
     id="defs2"><rect
       x="261.29032"
       y="397.49048"
       width="58.841758"
       height="45.262891"
       id="rect716" /></defs><g
     inkscape:label="Capa 1"
     inkscape:groupmode="layer"
     id="layer1"><g
       aria-label="QL"
       transform="scale(1.5671274,0.6381102)"
       id="text662"
       style="font-size:63.6899px;stroke-width:5.30749" /><text
       xml:space="preserve"
       transform="scale(0.26458333)"
       id="text714"
       style="white-space:pre;shape-inside:url(#rect716);display:inline;fill:#000000" /><path
       style="fill:#000000;stroke-width:0.0311593"
       d="m 8.0375613,296.18236 c -0.06708,-1.05731 -0.06409,-1.03702 -0.166855,-1.11562 -0.125579,-0.0962 -0.12367,-0.1307 0.03601,-0.65461 0.04234,-0.13907 0.05955,-0.31485 0.06313,-0.64637 0.0031,-0.25055 0.0165,-0.49245 0.03059,-0.53761 0.0141,-0.045 0.01721,-0.0897 0.0066,-0.0987 -0.02301,-0.0203 -0.484973,0.28192 -0.484973,0.31741 0,0.0143 -0.0446,0.0673 -0.09914,0.11784 -0.05451,0.0513 -0.09912,0.10299 -0.09912,0.11621 0,0.0138 -0.0461,0.0707 -0.102552,0.12786 -0.115896,0.11738 -0.231342,0.13421 -0.397396,0.0577 -0.09792,-0.0446 -0.09999,-0.0441 -0.09337,0.0217 0.01357,0.13623 -0.04392,0.2633 -0.154752,0.34196 -0.137445,0.0976 -0.139217,0.14672 -0.0094,0.25687 0.08434,0.0714 0.09889,0.10273 0.08466,0.18183 -0.01712,0.0953 -0.01682,0.0955 0.124333,0.0955 0.09315,0 0.159061,0.0179 0.192897,0.0516 0.07501,0.0751 0.223185,0.3203 0.223185,0.36932 0,0.0231 0.02228,0.0586 0.04956,0.0787 0.06983,0.0518 0.06167,0.16852 -0.01434,0.20471 -0.151776,0.072 -0.258027,-0.0109 -0.149754,-0.11756 0.04954,-0.0483 0.0508,-0.0576 0.0079,-0.0576 -0.02786,0 -0.06997,0.0204 -0.09358,0.046 -0.02358,0.0256 -0.08468,0.0654 -0.135739,0.0888 -0.150492,0.0693 -0.151435,0.15921 -0.0037,0.3553 0.165331,0.21941 0.273464,0.44823 0.273464,0.57854 0,0.17612 0.05026,0.19498 0.519622,0.19498 h 0.416008 z m -2.473628,0.16895 c 0.02118,-0.1218 0.08493,-0.29748 0.154697,-0.42645 0.06528,-0.12057 0.118631,-0.24388 0.118631,-0.27404 0,-0.0696 -0.327353,-0.34687 -0.474433,-0.40148 -0.06694,-0.0248 -0.159689,-0.0343 -0.231658,-0.0237 -0.18528,0.0267 -0.155725,-0.0609 0.116909,-0.34793 0.06669,-0.0699 0.131826,-0.16711 0.144767,-0.21556 0.01297,-0.0482 0.05353,-0.11739 0.09023,-0.15332 0.06484,-0.0639 0.065,-0.066 0.0039,-0.0836 -0.0345,-0.0103 -0.118873,-0.0364 -0.18743,-0.0594 -0.09332,-0.0308 -0.252904,-0.0389 -0.634696,-0.0304 -0.58307,0.0126 -0.595316,0.0103 -0.699793,-0.20654 -0.03797,-0.0784 -0.117059,-0.24152 -0.175794,-0.36272 -0.199103,-0.41078 -0.236466,-0.51378 -0.261234,-0.71986 l -0.0247,-0.20559 -0.105175,0.19089 c -0.05785,0.10509 -0.105187,0.22518 -0.105201,0.267 -3.2e-5,0.10134 0.105438,0.38163 0.264716,0.70343 0.07159,0.14469 0.249818,0.57721 0.39605,0.96118 0.146231,0.38398 0.343617,0.89646 0.438625,1.13884 l 0.172753,0.44075 0.481388,0.0103 0.481391,0.0103 z m 1.874393,-3.88243 c 0.0088,-0.022 0.01264,-0.0844 0.0087,-0.13886 -0.0092,-0.12385 0.06719,-0.17872 0.180741,-0.13024 0.04207,0.0181 0.149401,0.0526 0.238495,0.0772 0.183999,0.0505 0.256897,0.0283 0.319213,-0.0968 0.06647,-0.13316 0.254958,-0.24858 0.397716,-0.24353 0.06996,0.005 0.135896,-0.0103 0.14652,-0.0231 0.04064,-0.0584 0.115582,-0.0234 0.161987,0.0751 0.04256,0.0905 0.06258,0.10285 0.167161,0.10285 0.146168,0 0.25753,-0.0905 0.352658,-0.28702 0.03703,-0.0766 0.11119,-0.22319 0.164805,-0.32595 0.09048,-0.17358 0.09363,-0.19082 0.04389,-0.23967 -0.02946,-0.029 -0.0637,-0.11386 -0.07608,-0.18875 -0.01237,-0.0748 -0.03734,-0.13488 -0.05555,-0.13328 -0.03294,0.006 -0.0326,0.022 0.0037,0.19201 0.01509,0.0701 -3.49e-4,0.11051 -0.07093,0.18505 -0.124745,0.13184 -0.196097,0.11236 -0.201554,-0.055 -0.0023,-0.072 -0.01524,-0.18638 -0.02859,-0.25314 -0.01488,-0.0743 -0.0091,-0.16261 0.01513,-0.22778 0.03454,-0.093 0.05275,-0.10624 0.146771,-0.10624 0.190786,0 0.279784,-0.13853 0.346376,-0.53908 0.01839,-0.11068 0.05468,-0.23004 0.08062,-0.26521 0.07527,-0.10216 0.165075,-0.56267 0.146032,-0.74883 -0.0093,-0.091 -0.04818,-0.21273 -0.08639,-0.27024 -0.0776,-0.11685 -0.2647,-0.21315 -0.336977,-0.1734 -0.07841,0.0436 -0.167017,-0.055 -0.144789,-0.16041 0.02411,-0.11427 -0.07681,-0.20669 -0.377433,-0.34572 -0.115797,-0.0536 -0.260775,-0.12063 -0.322172,-0.14904 -0.0693,-0.0322 -0.111632,-0.0734 -0.111632,-0.10947 0,-0.0783 0.178391,-0.15818 0.301762,-0.13549 0.05209,0.0103 0.136629,0.0254 0.187796,0.0346 0.06086,0.011 0.132439,-0.005 0.207041,-0.04 0.172711,-0.0861 0.389497,-0.10571 0.570464,-0.0515 0.114773,0.0348 0.170166,0.0389 0.2197207,0.015 0.03644,-0.0178 0.06626,-0.0366 0.06626,-0.0437 0,-0.0474 -0.2361967,-0.3053 -0.4100857,-0.44693 -0.120026,-0.0979 -0.240339,-0.22862 -0.280971,-0.30548 -0.07894,-0.14931 -0.186046,-0.21509 -0.547831,-0.33618 -0.121754,-0.041 -0.287997,-0.11924 -0.36943,-0.17456 -0.196145,-0.13321 -0.475987,-0.18329 -1.150804,-0.2063 -0.290781,-0.0103 -0.632779,-0.0337 -0.759995,-0.053 -0.307544,-0.0466 -1.572369,-0.0434 -1.759558,0.009 -0.173433,0.0439 -0.179558,0.0841 -0.01655,0.10737 0.06812,0.0103 0.153655,0.0325 0.190001,0.0513 0.03638,0.0186 0.16274,0.0491 0.280868,0.0697 0.421356,0.0716 0.711044,0.13489 0.75056,0.16394 0.02206,0.0163 0.103859,0.0336 0.181741,0.0391 0.07789,0.0103 0.152759,0.0103 0.166392,0.0114 0.01359,0.003 0.02476,0.0414 0.02476,0.0889 0,0.061 -0.02947,0.10653 -0.102751,0.15752 -0.08834,0.061 -0.09759,0.0803 -0.06603,0.13248 0.02308,0.0389 0.07649,0.0644 0.143824,0.0699 0.07962,0.0103 0.118537,0.031 0.151607,0.0921 0.03228,0.06 0.05949,0.0776 0.09936,0.0622 0.106052,-0.0401 0.188263,-0.045 0.316791,-0.0212 0.175644,0.0329 0.197224,0.0972 0.02971,0.0883 -0.113836,-0.0103 -0.125635,-3e-5 -0.118378,0.0603 0.0099,0.0825 0.137988,0.24142 0.194463,0.24142 0.07034,0 0.0914,0.066 0.03309,0.10361 -0.110939,0.072 -0.317656,0.0789 -0.455782,0.0152 -0.160966,-0.0745 -0.265428,-0.076 -0.33859,-0.008 -0.05397,0.053 -0.05312,0.0579 0.01574,0.10092 0.08519,0.053 0.06534,0.13702 -0.03229,0.13702 -0.03584,0 -0.07364,0.0119 -0.08402,0.0275 -0.01037,0.0151 -0.06309,0.0354 -0.117222,0.0462 -0.21996,0.0432 -0.146139,0.14586 0.124467,0.17354 0.129559,0.0138 0.235406,0.0467 0.334852,0.10652 0.07997,0.0475 0.169971,0.0872 0.20001,0.0872 0.03008,0 0.114885,0.0395 0.188562,0.0876 0.111065,0.0724 0.164411,0.0873 0.312157,0.0855 0.390323,-0.008 0.648546,0.0788 1.016227,0.32681 0.0843,0.0569 0.195307,0.11984 0.246678,0.13995 0.0815,0.0318 0.09063,0.0474 0.07173,0.1244 -0.01894,0.0769 -0.0049,0.10143 0.113121,0.19541 0.07417,0.0591 0.134809,0.13111 0.134809,0.15984 0,0.0287 0.01485,0.0604 0.03309,0.0702 0.05011,0.0279 0.04004,0.0674 -0.03358,0.13273 -0.06047,0.0537 -0.07507,0.0557 -0.157034,0.018 -0.04969,-0.0228 -0.12009,-0.071 -0.156396,-0.10676 -0.03636,-0.0356 -0.10318,-0.0782 -0.148619,-0.0937 -0.140404,-0.0483 -0.567974,-0.14098 -0.652676,-0.14098 -0.04422,0 -0.119248,-0.0274 -0.166762,-0.0604 -0.05463,-0.0388 -0.113365,-0.0545 -0.159778,-0.044 -0.09998,0.0222 -0.166376,-0.0446 -0.194766,-0.1961 -0.02785,-0.14872 -0.132182,-0.34236 -0.196224,-0.36422 -0.105334,-0.0357 -0.286753,0.11013 -0.351278,0.28286 -0.06114,0.16371 -0.08779,0.18153 -0.196709,0.13145 -0.05182,-0.0235 -0.151073,-0.0432 -0.220629,-0.0432 -0.06956,0 -0.160463,-0.0213 -0.202019,-0.0469 -0.1124,-0.0698 -0.659551,-0.10112 -0.910151,-0.0519 -0.127604,0.0253 -0.205466,0.11282 -0.157697,0.17755 0.03372,0.0454 0.240484,0.0721 0.288181,0.0369 0.03652,-0.0271 0.327964,0.0179 0.700086,0.10729 0.0709,0.0173 0.04547,0.0672 -0.05839,0.11488 -0.08162,0.0376 -0.125096,0.0403 -0.239556,0.0137 -0.07692,-0.0182 -0.199332,-0.0462 -0.272027,-0.0631 -0.07272,-0.0166 -0.164618,-0.0413 -0.204269,-0.055 -0.05239,-0.0184 -0.09442,-0.0103 -0.153909,0.0321 -0.04502,0.0312 -0.09545,0.057 -0.112139,0.057 -0.01671,0 -0.06523,0.0327 -0.10783,0.0732 -0.06835,0.0649 -0.07251,0.0813 -0.03532,0.14346 0.02318,0.0391 0.105209,0.10958 0.182231,0.15784 0.120659,0.0759 0.146699,0.1117 0.188113,0.26059 0.03389,0.12163 0.03981,0.21515 0.02026,0.31592 -0.02284,0.11726 -0.0177,0.15315 0.02829,0.19835 0.03087,0.031 0.06588,0.0555 0.07781,0.0555 0.03401,0 0.141881,-0.10288 0.232415,-0.22151 0.04547,-0.0593 0.172532,-0.20261 0.28244,-0.31795 0.161617,-0.16965 0.207879,-0.24208 0.241959,-0.37882 0.04326,-0.17363 0.09901,-0.22763 0.235065,-0.22763 0.03843,0 0.11548,-0.0209 0.171188,-0.0464 0.149415,-0.0687 0.179177,-0.0188 0.09406,0.15682 -0.09319,0.19263 -0.08041,0.35003 0.03268,0.4022 0.102196,0.0467 0.379382,0.13398 0.512171,0.16047 0.07025,0.0143 0.102349,0.04 0.11019,0.0883 0.0061,0.0385 0.03995,0.0752 0.07608,0.0835 0.08138,0.019 0.309265,0.40631 0.2562,0.43545 -0.01965,0.0106 -0.07808,-0.0213 -0.129881,-0.0718 -0.09671,-0.0942 -0.176072,-0.11605 -0.215401,-0.0595 -0.02135,0.0312 -0.081,0.0279 -0.382439,-0.0186 -0.07339,-0.0109 -0.128693,-0.0103 -0.142382,0.0141 -0.03561,0.0515 -0.157423,0.0373 -0.282822,-0.0317 -0.06358,-0.035 -0.175132,-0.0714 -0.247828,-0.0811 -0.114163,-0.0148 -0.136477,-0.0299 -0.163788,-0.11212 -0.01734,-0.0526 -0.0453,-0.0956 -0.06195,-0.0956 -0.01671,0 -0.09911,0.0688 -0.183164,0.15258 -0.08405,0.084 -0.223454,0.21155 -0.309778,0.28349 -0.08634,0.0718 -0.156955,0.14838 -0.156955,0.16964 0,0.0648 0.113585,0.1001 0.227593,0.0711 0.05711,-0.0147 0.155239,-0.0188 0.218035,-0.0103 0.06281,0.0103 0.181178,0.003 0.263076,-0.0171 0.134341,-0.0304 0.176344,-0.0248 0.42949,0.053 0.154322,0.0472 0.372444,0.1343 0.484713,0.19278 0.112274,0.0586 0.24869,0.11435 0.303147,0.12399 0.128324,0.0226 0.386979,0.24221 0.386979,0.32823 0,0.0727 -0.08722,0.23864 -0.125668,0.23864 -0.03268,0 -0.153419,-0.0761 -0.25825,-0.16227 -0.126053,-0.10387 -0.256304,-0.11883 -0.396179,-0.0451 l -0.117651,0.0613 -0.230487,-0.0737 c -0.251019,-0.0806 -0.467175,-0.0938 -0.61265,-0.0389 -0.0511,0.0193 -0.249152,0.043 -0.439976,0.0517 -0.315137,0.0146 -0.347747,0.0212 -0.355614,0.0744 -0.0094,0.0638 0.263928,0.33789 0.336197,0.33789 0.02255,0 0.07586,-0.0328 0.118548,-0.0733 0.109918,-0.10406 0.170193,-0.0923 0.332475,0.0642 0.07842,0.076 0.148486,0.12199 0.155657,0.10282 0.02149,-0.0569 0.128283,-0.0397 0.232794,0.0392 0.05401,0.0405 0.114093,0.0733 0.133544,0.0733 0.01945,0 0.05036,0.0248 0.06864,0.0557 0.03977,0.0661 0.147074,0.0891 0.563815,0.12029 0.17265,0.0134 0.354618,0.033 0.404372,0.0446 0.06362,0.0152 0.09514,0.0103 0.106236,-0.0188 z m 0.362833,-2.68788 c -0.199272,-0.1352 -0.121327,-0.17379 0.13474,-0.0667 0.08158,0.0339 0.148337,0.0806 0.148337,0.10284 0,0.0679 -0.160552,0.0469 -0.283077,-0.0359 z m -0.490738,-2.02711 c -0.08274,-0.0285 -0.06109,-0.0625 0.04831,-0.0771 0.103314,-0.014 0.150262,0.0139 0.114194,0.0656 -0.02313,0.0332 -0.08567,0.038 -0.162516,0.011 z m -0.502163,3.64831 c -0.01008,-0.023 -0.05259,-0.0621 -0.09445,-0.0866 -0.106345,-0.0617 -0.577693,-0.165 -0.749866,-0.1639 -0.184217,0.002 -0.124667,0.0302 0.23681,0.11428 0.154477,0.0358 0.34446,0.0907 0.422185,0.12208 0.168895,0.0676 0.209677,0.0707 0.185306,0.0143 z m -1.869737,-0.12662 c 0.01898,-0.0439 0.04398,-0.15275 0.05556,-0.24068 0.01533,-0.11607 0.04317,-0.17801 0.101724,-0.22628 0.04436,-0.036 0.08061,-0.087 0.08061,-0.11229 0,-0.0363 -0.02577,-0.0314 -0.131518,0.0281 -0.07232,0.0409 -0.153582,0.0735 -0.180547,0.0735 -0.06784,0 -0.216633,0.20285 -0.216633,0.29534 0,0.044 0.03435,0.1025 0.08263,0.13989 0.04545,0.0348 0.08264,0.0775 0.08264,0.0933 0,0.0637 0.09292,0.0257 0.125572,-0.0515 z m -1.304119,-0.29136 c 0.01211,-0.0104 0.02202,-0.11055 0.02202,-0.22174 0,-0.19157 -0.0053,-0.2047 -0.09449,-0.25037 -0.05198,-0.0266 -0.122599,-0.10197 -0.156959,-0.16755 -0.03431,-0.0658 -0.07731,-0.11941 -0.0955,-0.11941 -0.01811,0 -0.03732,0.0933 -0.04265,0.20742 -0.0081,0.17792 9e-6,0.21511 0.05783,0.26167 0.03713,0.0302 0.06738,0.0909 0.06738,0.13618 0,0.1102 0.169984,0.21812 0.242322,0.1538 z m 5.788057,-3.06557 c -0.01122,-0.0163 -0.0353,-0.0296 -0.05348,-0.0296 -0.01815,0 -0.02387,0.0137 -0.01264,0.0296 0.01122,0.0163 0.03529,0.0297 0.05349,0.0297 0.01814,0 0.02386,-0.0139 0.01264,-0.0297 z m -5.103614,-0.79482 c 0.02642,-0.0151 0.08642,-0.0274 0.133345,-0.0278 0.04694,-1.4e-4 0.09474,-0.0103 0.106231,-0.0187 0.03317,-0.0297 -0.04018,-0.12838 -0.09526,-0.12838 -0.083,0 -0.245024,0.0868 -0.245024,0.13127 0,0.0571 0.04323,0.0761 0.100707,0.0435 z"
       id="path356-1"
       sodipodi:nodetypes="ssssssssssssssssssssssssssscssssssssssssssscssssscccsssssssssssssssssssssssssssssscscsssssssssssssscssssssssssssssssssssssssssssssssssssssssssssssssssssssssssssssssssssssssscssssssssccssssssscssscssssssssssssssssssssscssssssssssssssssssssssssssssccsss" /><path
       d="m 2.1872484,286.08216 -0.332663,-0.81712 -0.348964,0.80487 -0.91141001,0.0128 0.66613101,0.5918 -0.187475,0.85704 0.777622,-0.4757 0.747642,0.42661 -0.192646,-0.80501 0.613551,-0.54088 z"
       style="fill:#000000;stroke-width:0.0415991"
       id="path487-7"
       sodipodi:nodetypes="ccccccccccc" /><path
       d="m 13.564851,289.25639 c 0,0.61269 0.107731,1.13418 0.323154,1.56445 0.04696,0.10466 0.105541,0.26639 0.105541,0.26639 l -0.695207,0.0121 0.0037,0.7377 2.118085,-0.006 h 0.07892 c 0.02488,0.006 0.0491,0.006 0.07314,0.006 0.451141,0 0.827108,-0.10759 1.127844,-0.32273 0.296664,-0.21512 0.518144,-0.51678 0.664534,-0.90499 0.146305,-0.38817 0.219439,-0.84184 0.219439,-1.36099 0,-0.51447 -0.07314,-0.96345 -0.219439,-1.34696 -0.14639,-0.38351 -0.36787,-0.68284 -0.664534,-0.89798 -0.300718,-0.21514 -0.678762,-0.3227 -1.133882,-0.3227 -0.434929,0 -0.800739,0.10771 -1.097357,0.3227 -0.296701,0.21048 -0.520241,0.50979 -0.670609,0.89798 -0.15443,0.38352 -0.231673,0.83484 -0.231673,1.354 z m 3.438394,0 c 0,0.6314 -0.115893,1.12949 -0.347557,1.49431 -0.231655,0.36011 -0.593366,0.54019 -1.08515,0.54019 -0.495857,0 -0.857558,-0.18003 -1.085114,-0.54019 -0.227639,-0.36482 -0.341398,-0.86291 -0.341398,-1.49431 0,-0.63139 0.113759,-1.12479 0.341398,-1.48025 0.227556,-0.36013 0.587216,-0.54019 1.079057,-0.54019 0.491729,0 0.855555,0.18003 1.091207,0.54019 0.231664,0.35546 0.347557,0.84886 0.347557,1.48025 z"
       id="path732-6"
       sodipodi:nodetypes="sccccccscssscsccssscscscscs"
       style="font-size:63.6899px;stroke-width:0.544979" /><path
       d="m 12.60164,291.8353 v -5.0764 l -0.625698,-0.01 v 4.32258 l -1.825045,0.01 v 0.75382 z"
       id="path734-1"
       sodipodi:nodetypes="ccccccc"
       style="font-size:63.6899px;stroke-width:0.544979" /><g
       aria-label="GREAT"
       transform="matrix(-1.0747207,0,0,1.5781002,387.80468,314.20081)"
       id="text726-7"
       style="font-size:2.12793px;stroke-width:0.177325"><path
         d="m 345.39253,-12.138566 v -0.316903 h 0.72732 v 0.649392 q -0.20884,0.142347 -0.36989,0.194299 -0.16001,0.05091 -0.38028,0.05091 -0.27119,0 -0.44263,-0.09247 -0.1704,-0.09247 -0.26495,-0.275343 -0.0935,-0.182869 -0.0935,-0.419767 0,-0.249367 0.10286,-0.433275 0.10286,-0.184947 0.30132,-0.280538 0.15481,-0.07377 0.41665,-0.07377 0.25248,0 0.37717,0.04572 0.12572,0.04572 0.2078,0.142347 0.0831,0.09559 0.12468,0.243133 l -0.45405,0.08104 q -0.0281,-0.08624 -0.0956,-0.131956 -0.0665,-0.04572 -0.1704,-0.04572 -0.15482,0 -0.24729,0.108059 -0.0914,0.10702 -0.0914,0.339763 0,0.247288 0.0925,0.353269 0.0935,0.105981 0.25975,0.105981 0.079,0 0.15066,-0.02286 0.0717,-0.02286 0.16417,-0.07793 v -0.143386 z"
         style="font-family:'Arial Black';-inkscape-font-specification:'Arial Black, '"
         id="path863-8" /><path
         d="m 346.40559,-11.586842 v -1.523215 h 0.78446 q 0.2182,0 0.33353,0.0374 0.11533,0.0374 0.18599,0.13923 0.0707,0.100786 0.0707,0.246249 0,0.126762 -0.054,0.219235 -0.054,0.09144 -0.14858,0.148581 -0.0603,0.03637 -0.1652,0.06026 0.0842,0.02805 0.1226,0.05611 0.026,0.0187 0.0748,0.08 0.0499,0.0613 0.0665,0.09455 l 0.22755,0.441587 h -0.53199 l -0.25144,-0.465484 q -0.0478,-0.0904 -0.0852,-0.11741 -0.0509,-0.03533 -0.11533,-0.03533 h -0.0416 v 0.618221 z m 0.47276,-0.906032 h 0.19845 q 0.0322,0 0.12468,-0.02078 0.0468,-0.0094 0.0759,-0.0478 0.0301,-0.03844 0.0301,-0.08832 0,-0.07377 -0.0467,-0.113254 -0.0468,-0.03948 -0.1756,-0.03948 h -0.20676 z"
         style="font-family:'Arial Black';-inkscape-font-specification:'Arial Black, '"
         id="path865-4" /><path
         d="m 348.05349,-13.110057 h 1.26138 v 0.325216 h -0.78966 v 0.242093 h 0.73251 v 0.31067 h -0.73251 v 0.300279 h 0.81252 v 0.344957 h -1.28424 z"
         style="font-family:'Arial Black';-inkscape-font-specification:'Arial Black, '"
         id="path867-5" /><path
         d="m 350.52845,-11.838286 h -0.53614 l -0.0738,0.251444 h -0.48107 l 0.57251,-1.523215 h 0.51328 l 0.5725,1.523215 h -0.4925 z m -0.0987,-0.329372 -0.16832,-0.547568 -0.16728,0.547568 z"
         style="font-family:'Arial Black';-inkscape-font-specification:'Arial Black, '"
         id="path869-0" /><path
         d="m 350.9929,-13.110057 h 1.43074 v 0.376128 h -0.48003 v 1.147087 h -0.47068 v -1.147087 h -0.48003 z"
         style="font-family:'Arial Black';-inkscape-font-specification:'Arial Black, '"
         id="path871-3" /></g><g
       aria-label="AGAIN"
       transform="matrix(0,-1.0334536,-0.96762931,0,297.42213,303.22787)"
       id="text730-2"
       style="font-size:2.39341px;stroke-width:0.199452"><path
         d="M 7.678526,306.21584 H 7.0754989 l -0.082975,0.28282 h -0.541088 l 0.6439301,-1.71325 h 0.5773167 l 0.6439301,1.71325 H 7.7626693 Z m -0.1110225,-0.37046 -0.1893224,-0.61588 -0.1881538,0.61588 z"
         style="font-family:'Arial Black';-inkscape-font-specification:'Arial Black, '"
         id="path874-9" /><path
         d="m 9.3041282,305.8781 v -0.35644 h 0.8180598 v 0.73041 q -0.2348999,0.16011 -0.4160417,0.21854 -0.1799732,0.0573 -0.4277286,0.0573 -0.3050195,0 -0.4978479,-0.10401 -0.1916598,-0.10401 -0.2980076,-0.30969 -0.1051792,-0.20568 -0.1051792,-0.47214 0,-0.28048 0.1156971,-0.48733 0.1156971,-0.20802 0.3389106,-0.31554 0.1741299,-0.083 0.4686315,-0.083 0.2839837,0 0.4242226,0.0514 0.1414075,0.0514 0.2337314,0.16011 0.093493,0.10751 0.1402388,0.27346 l -0.5107031,0.0912 q -0.031554,-0.097 -0.1075165,-0.14842 -0.074794,-0.0514 -0.1916597,-0.0514 -0.17413,0 -0.2781405,0.12154 -0.1028418,0.12037 -0.1028418,0.38215 0,0.27814 0.1040105,0.39734 0.1051791,0.1192 0.2921643,0.1192 0.088818,0 0.1694553,-0.0257 0.080637,-0.0257 0.1846478,-0.0876 v -0.16127 z"
         style="font-family:'Arial Black';-inkscape-font-specification:'Arial Black, '"
         id="path876-3" /><path
         d="m 11.490686,306.21584 h -0.603027 l -0.08297,0.28282 h -0.541088 l 0.64393,-1.71325 h 0.577317 l 0.64393,1.71325 h -0.553944 z m -0.111022,-0.37046 -0.189323,-0.61588 -0.188154,0.61588 z"
         style="font-family:'Arial Black';-inkscape-font-specification:'Arial Black, '"
         id="path878-1" /><path
         d="m 12.319264,304.78541 h 0.53057 v 1.71325 h -0.53057 z"
         style="font-family:'Arial Black';-inkscape-font-specification:'Arial Black, '"
         id="path880-9" /><path
         d="m 13.233154,304.78541 h 0.494342 l 0.645099,0.94778 v -0.94778 h 0.499016 v 1.71325 h -0.499016 l -0.641593,-0.94077 v 0.94077 h -0.497848 z"
         style="font-family:'Arial Black';-inkscape-font-specification:'Arial Black, '"
         id="path882-4" /></g><path
       d="m 19.543927,293.86869 0.697068,0.15337 -0.37747,-0.51563 0.353429,-0.54345 -0.666738,0.1389 -0.496235,-0.46196 -0.01955,0.63449 -0.615273,0.24205 0.627575,0.22696 0.0963,0.5696 z"
       style="fill:#000000;stroke-width:0.0311593"
       id="path525-5" /><path
       d="m 19.139541,295.59985 0.697069,0.15345 -0.377471,-0.51568 0.353429,-0.54343 -0.666738,0.13889 -0.496235,-0.46197 -0.01954,0.63446 -0.615272,0.24209 0.627575,0.22699 0.0963,0.5696 z"
       style="fill:#000000;stroke-width:0.0311593"
       id="path525-6-4" /><g
       aria-label="MAKE"
       transform="matrix(0,-0.87647597,-1.1409326,0,21.021144,1.3238626)"
       id="text722-6"
       style="font-size:2.13692px;stroke-width:0.178075"><path
         d="m -332.016,0.90773269 h 0.62188 l 0.23998,0.93072881 0.23894,-0.93072881 h 0.61979 V 2.4373834 h -0.38606 V 1.2708421 l -0.29946,1.1665413 h -0.34955 l -0.29841,-1.1665413 v 1.1665413 h -0.38711 z"
         style="font-family:'Arial Black';-inkscape-font-specification:'Arial Black, '"
         id="path854-5" /><path
         d="m -329.05269,2.1848763 h -0.53841 l -0.0741,0.2525071 h -0.4831 l 0.57492,-1.52965071 h 0.51545 l 0.57492,1.52965071 h -0.49458 z m -0.0991,-0.3307635 -0.16903,-0.5498813 -0.16799,0.5498813 z"
         style="font-family:'Arial Black';-inkscape-font-specification:'Arial Black, '"
         id="path856-6" /><path
         d="m -328.32961,0.90773269 h 0.47267 V 1.4857862 l 0.49563,-0.57805351 h 0.62813 l -0.55718,0.57701011 0.58223,0.9526406 h -0.58223 l -0.32242,-0.629181 -0.24416,0.2556374 v 0.3735436 h -0.47267 z"
         style="font-family:'Arial Black';-inkscape-font-specification:'Arial Black, '"
         id="path858-9" /><path
         d="m -326.55267,0.90773269 h 1.26671 V 1.2343225 h -0.79299 v 0.2431164 h 0.73561 v 0.311982 h -0.73561 v 0.3015478 h 0.81595 v 0.3464147 h -1.28967 z"
         style="font-family:'Arial Black';-inkscape-font-specification:'Arial Black, '"
         id="path860-3" /></g></g></svg>
