M48
; DRILL file {KiCad 8.0.5+1} date 2024-11-07T11:26:01+0100
; FORMAT={-:-/ absolute / metric / decimal}
; #@! TF.CreationDate,2024-11-07T11:26:01+01:00
; #@! TF.GenerationSoftware,Kicad,Pcbnew,8.0.5+1
; #@! TF.FileFunction,MixedPlating,1,2
FMAT,2
METRIC
; #@! TA.AperFunction,Plated,PTH,ViaDrill
T1C0.400
; #@! TA.AperFunction,Plated,PTH,ComponentDrill
T2C0.800
; #@! TA.AperFunction,Plated,PTH,ComponentDrill
T3C1.000
; #@! TA.AperFunction,Plated,PTH,ComponentDrill
T4C1.100
; #@! TA.AperFunction,NonPlated,NPTH,ComponentDrill
T5C2.850
; #@! TA.AperFunction,NonPlated,NPTH,ComponentDrill
T6C3.500
%
G90
G05
T1
X130.048Y-133.223
X137.532Y-121.383
X138.572Y-125.953
X138.972Y-130.323
X139.502Y-127.833
X139.737Y-121.793
X140.075Y-116.713
X140.589Y-130.175
X142.377Y-130.175
X144.716Y-121.793
X146.177Y-128.143
X147.447Y-100.203
X147.447Y-105.401
X148.082Y-134.743
X148.336Y-97.372
X148.353Y-89.175
X148.844Y-135.763
X149.276Y-75.572
X149.301Y-91.059
X149.572Y-115.504
X151.198Y-96.016
X153.162Y-92.936
X156.337Y-119.507
X156.845Y-117.729
X156.852Y-97.464
X157.09Y-115.443
X157.099Y-122.555
X157.902Y-90.104
X158.114Y-93.85
X158.242Y-77.597
X158.564Y-90.943
X159.512Y-95.835
X159.646Y-116.281
X159.784Y-92.119
X160.894Y-83.058
X161.645Y-54.33
X161.645Y-58.41
X162.593Y-92.569
X163.72Y-126.452
X164.377Y-96.872
X164.489Y-117.475
X164.592Y-136.144
X165.862Y-119.888
X166.116Y-96.133
X168.604Y-107.299
X168.91Y-96.291
X170.942Y-122.88
X170.942Y-125.918
X171.704Y-102.743
X172.212Y-133.477
X172.558Y-134.691
X172.668Y-121.954
X173.482Y-127.381
X175.514Y-127.889
X177.28Y-94.375
X177.781Y-115.317
X177.873Y-121.544
X179.324Y-122.291
X179.832Y-102.743
X180.899Y-99.695
X182.118Y-112.903
X182.626Y-76.454
X182.833Y-128.427
X184.302Y-120.523
X184.912Y-89.027
X184.912Y-102.743
X187.452Y-120.523
X188.722Y-120.523
X188.812Y-102.743
X189.103Y-123.251
X189.165Y-127.7
X189.484Y-129.413
X190.119Y-110.363
X190.246Y-112.991
X190.754Y-123.317
X191.262Y-95.928
X197.9Y-59.483
X199.136Y-87.249
X199.771Y-109.22
T2
X140.462Y-64.643
X143.002Y-64.643
X145.542Y-64.643
X148.082Y-64.643
X150.622Y-64.643
X151.892Y-98.933
X151.892Y-101.473
X151.892Y-104.013
X151.892Y-106.553
X151.892Y-109.093
X151.892Y-111.633
X151.892Y-114.173
X153.162Y-72.649
X153.162Y-87.889
X153.162Y-124.333
X153.162Y-139.573
X155.702Y-72.649
X155.702Y-87.889
X155.702Y-124.333
X155.702Y-139.573
X158.242Y-59.944
X158.242Y-67.564
X158.242Y-72.649
X158.242Y-87.889
X158.242Y-124.333
X158.242Y-139.573
X159.512Y-98.933
X159.512Y-101.473
X159.512Y-104.013
X159.512Y-106.553
X159.512Y-109.093
X159.512Y-111.633
X159.512Y-114.173
X160.782Y-72.649
X160.782Y-87.889
X160.782Y-124.333
X160.782Y-139.573
X163.322Y-72.649
X163.322Y-87.889
X163.322Y-124.333
X163.322Y-139.573
X165.862Y-59.944
X165.862Y-67.564
X165.862Y-72.649
X165.862Y-87.889
X165.862Y-98.933
X165.862Y-101.473
X165.862Y-104.013
X165.862Y-106.553
X165.862Y-109.093
X165.862Y-111.633
X165.862Y-114.173
X165.862Y-116.713
X165.862Y-124.333
X165.862Y-139.573
X168.402Y-72.649
X168.402Y-87.889
X168.402Y-124.333
X168.402Y-139.573
X170.942Y-72.649
X170.942Y-87.889
X170.942Y-124.333
X170.942Y-139.573
X173.482Y-72.649
X173.482Y-87.889
X173.482Y-98.933
X173.482Y-101.473
X173.482Y-104.013
X173.482Y-106.553
X173.482Y-109.093
X173.482Y-111.633
X173.482Y-114.173
X173.482Y-116.713
X173.482Y-124.333
X173.482Y-139.573
X176.022Y-72.649
X176.022Y-87.889
X176.022Y-124.333
X176.022Y-139.573
X178.562Y-72.649
X178.562Y-87.889
X178.562Y-96.393
X178.562Y-98.933
X178.562Y-101.473
X178.562Y-104.013
X178.562Y-106.553
X178.562Y-109.093
X178.562Y-111.633
X178.562Y-114.173
X178.562Y-116.713
X178.562Y-119.253
X178.562Y-124.333
X178.562Y-139.573
X181.102Y-72.649
X181.102Y-87.889
X181.102Y-124.333
X181.102Y-139.573
X183.642Y-72.649
X183.642Y-87.889
X183.642Y-124.333
X183.642Y-139.573
X186.182Y-72.649
X186.182Y-87.889
X186.182Y-96.393
X186.182Y-98.933
X186.182Y-101.473
X186.182Y-104.013
X186.182Y-106.553
X186.182Y-109.093
X186.182Y-111.633
X186.182Y-114.173
X186.182Y-116.713
X186.182Y-119.253
X186.182Y-124.333
X186.182Y-139.573
T3
X133.477Y-54.483
X133.477Y-57.023
X133.477Y-59.563
X133.477Y-62.103
X133.477Y-64.643
X133.477Y-67.183
X133.477Y-69.723
X133.477Y-72.263
X133.477Y-74.803
X133.477Y-77.343
X133.477Y-79.883
X133.477Y-82.423
X133.477Y-84.963
X133.477Y-87.503
X133.477Y-90.043
X133.477Y-92.583
X133.477Y-95.123
X133.477Y-97.663
X133.477Y-100.203
X133.477Y-102.743
X133.477Y-105.283
X133.477Y-107.823
X133.477Y-110.363
X133.477Y-112.903
X133.477Y-115.443
X133.477Y-117.983
X133.477Y-120.523
X133.477Y-123.063
X133.477Y-125.603
X133.477Y-128.143
X133.477Y-130.683
X133.477Y-133.223
X136.017Y-54.483
X136.017Y-57.023
X136.017Y-59.563
X136.017Y-62.103
X136.017Y-64.643
X136.017Y-67.183
X136.017Y-69.723
X136.017Y-72.263
X136.017Y-74.803
X136.017Y-77.343
X136.017Y-79.883
X136.017Y-82.423
X136.017Y-84.963
X136.017Y-87.503
X136.017Y-90.043
X136.017Y-92.583
X136.017Y-95.123
X136.017Y-97.663
X136.017Y-100.203
X136.017Y-102.743
X136.017Y-105.283
X136.017Y-107.823
X136.017Y-110.363
X136.017Y-112.903
X136.017Y-115.443
X136.017Y-117.983
X136.017Y-120.523
X136.017Y-123.063
X136.017Y-125.603
X136.017Y-128.143
X136.017Y-130.683
X136.017Y-133.223
X143.256Y-73.66
X143.256Y-76.2
X143.256Y-78.74
X143.256Y-81.28
X143.256Y-83.82
X143.256Y-86.36
X143.256Y-88.9
X143.256Y-91.44
X143.256Y-93.98
X143.256Y-96.52
X143.256Y-99.06
X143.256Y-101.6
X143.256Y-104.14
X143.256Y-106.68
X143.256Y-109.22
X143.256Y-111.76
X143.256Y-114.3
X145.796Y-73.66
X145.796Y-76.2
X145.796Y-78.74
X145.796Y-81.28
X145.796Y-83.82
X145.796Y-86.36
X145.796Y-88.9
X145.796Y-91.44
X145.796Y-93.98
X145.796Y-96.52
X145.796Y-99.06
X145.796Y-101.6
X145.796Y-104.14
X145.796Y-106.68
X145.796Y-109.22
X145.796Y-111.76
X145.796Y-114.3
X193.802Y-54.483
X193.802Y-57.023
X193.802Y-59.563
X193.802Y-62.103
X193.802Y-64.643
X193.802Y-67.183
X193.802Y-69.723
X193.802Y-72.263
X193.802Y-74.803
X193.802Y-77.343
X193.802Y-79.883
X193.802Y-82.423
X193.802Y-84.963
X193.802Y-87.503
X193.802Y-90.043
X193.802Y-92.583
X193.802Y-95.123
X193.802Y-97.663
X193.802Y-100.203
X193.802Y-102.743
X193.802Y-105.283
X193.802Y-107.823
X193.802Y-110.363
X193.802Y-112.903
X193.802Y-115.443
X193.802Y-117.983
X193.802Y-120.523
X193.802Y-123.063
X193.802Y-125.603
X193.802Y-128.143
X193.802Y-130.683
X193.802Y-133.223
X196.342Y-54.483
X196.342Y-57.023
X196.342Y-59.563
X196.342Y-62.103
X196.342Y-64.643
X196.342Y-67.183
X196.342Y-69.723
X196.342Y-72.263
X196.342Y-74.803
X196.342Y-77.343
X196.342Y-79.883
X196.342Y-82.423
X196.342Y-84.963
X196.342Y-87.503
X196.342Y-90.043
X196.342Y-92.583
X196.342Y-95.123
X196.342Y-97.663
X196.342Y-100.203
X196.342Y-102.743
X196.342Y-105.283
X196.342Y-107.823
X196.342Y-110.363
X196.342Y-112.903
X196.342Y-115.443
X196.342Y-117.983
X196.342Y-120.523
X196.342Y-123.063
X196.342Y-125.603
X196.342Y-128.143
X196.342Y-130.683
X196.342Y-133.223
T4
X182.372Y-65.913
X184.912Y-65.913
X187.452Y-65.913
T5
X130.937Y-49.403
X130.937Y-138.303
X198.882Y-49.393
X198.882Y-138.293
T6
X184.912Y-49.253
M30
