%TF.GenerationSoftware,KiCad,Pcbnew,8.0.5+1*%
%TF.CreationDate,2024-11-07T11:26:01+01:00*%
%TF.ProjectId,QL_MiniTrump3,514c5f4d-696e-4695-9472-756d70332e6b,02*%
%TF.SameCoordinates,Original*%
%TF.FileFunction,Profile,NP*%
%FSLAX46Y46*%
G04 Gerber Fmt 4.6, Leading zero omitted, Abs format (unit mm)*
G04 Created by KiCad (PCBNEW 8.0.5+1) date 2024-11-07 11:26:01*
%MOMM*%
%LPD*%
G01*
G04 APERTURE LIST*
%TA.AperFunction,Profile*%
%ADD10C,0.050000*%
%TD*%
%ADD11C,0.350000*%
G04 APERTURE END LIST*
D10*
X201422000Y-44323000D02*
X128397000Y-44323000D01*
X201422000Y-143383000D02*
X201422000Y-44323000D01*
X128397000Y-44323000D02*
X128397000Y-143383000D01*
X128397000Y-143383000D02*
X201422000Y-143383000D01*
D11*
X184912000Y-49253000D03*
X182372000Y-65913000D03*
X184912000Y-65913000D03*
X187452000Y-65913000D03*
X153162000Y-139573000D03*
X155702000Y-139573000D03*
X158242000Y-139573000D03*
X160782000Y-139573000D03*
X163322000Y-139573000D03*
X165862000Y-139573000D03*
X168402000Y-139573000D03*
X170942000Y-139573000D03*
X173482000Y-139573000D03*
X176022000Y-139573000D03*
X178562000Y-139573000D03*
X181102000Y-139573000D03*
X183642000Y-139573000D03*
X186182000Y-139573000D03*
X186182000Y-124333000D03*
X183642000Y-124333000D03*
X181102000Y-124333000D03*
X178562000Y-124333000D03*
X176022000Y-124333000D03*
X173482000Y-124333000D03*
X170942000Y-124333000D03*
X168402000Y-124333000D03*
X165862000Y-124333000D03*
X163322000Y-124333000D03*
X160782000Y-124333000D03*
X158242000Y-124333000D03*
X155702000Y-124333000D03*
X153162000Y-124333000D03*
X130937000Y-138303000D03*
X130937000Y-49403000D03*
X133477000Y-54483000D03*
X133477000Y-57023000D03*
X133477000Y-59563000D03*
X133477000Y-62103000D03*
X133477000Y-64643000D03*
X133477000Y-67183000D03*
X133477000Y-69723000D03*
X133477000Y-72263000D03*
X133477000Y-74803000D03*
X133477000Y-77343000D03*
X133477000Y-79883000D03*
X133477000Y-82423000D03*
X133477000Y-84963000D03*
X133477000Y-87503000D03*
X133477000Y-90043000D03*
X133477000Y-92583000D03*
X133477000Y-95123000D03*
X133477000Y-97663000D03*
X133477000Y-100203000D03*
X133477000Y-102743000D03*
X133477000Y-105283000D03*
X133477000Y-107823000D03*
X133477000Y-110363000D03*
X133477000Y-112903000D03*
X133477000Y-115443000D03*
X133477000Y-117983000D03*
X133477000Y-120523000D03*
X133477000Y-123063000D03*
X133477000Y-125603000D03*
X133477000Y-128143000D03*
X133477000Y-130683000D03*
X133477000Y-133223000D03*
X136017000Y-54483000D03*
X136017000Y-57023000D03*
X136017000Y-59563000D03*
X136017000Y-62103000D03*
X136017000Y-64643000D03*
X136017000Y-67183000D03*
X136017000Y-69723000D03*
X136017000Y-72263000D03*
X136017000Y-74803000D03*
X136017000Y-77343000D03*
X136017000Y-79883000D03*
X136017000Y-82423000D03*
X136017000Y-84963000D03*
X136017000Y-87503000D03*
X136017000Y-90043000D03*
X136017000Y-92583000D03*
X136017000Y-95123000D03*
X136017000Y-97663000D03*
X136017000Y-100203000D03*
X136017000Y-102743000D03*
X136017000Y-105283000D03*
X136017000Y-107823000D03*
X136017000Y-110363000D03*
X136017000Y-112903000D03*
X136017000Y-115443000D03*
X136017000Y-117983000D03*
X136017000Y-120523000D03*
X136017000Y-123063000D03*
X136017000Y-125603000D03*
X136017000Y-128143000D03*
X136017000Y-130683000D03*
X136017000Y-133223000D03*
X145796000Y-114300000D03*
X143256000Y-114300000D03*
X145796000Y-111760000D03*
X143256000Y-111760000D03*
X145796000Y-109220000D03*
X143256000Y-109220000D03*
X145796000Y-106680000D03*
X143256000Y-106680000D03*
X145796000Y-104140000D03*
X143256000Y-104140000D03*
X145796000Y-101600000D03*
X143256000Y-101600000D03*
X145796000Y-99060000D03*
X143256000Y-99060000D03*
X145796000Y-96520000D03*
X143256000Y-96520000D03*
X145796000Y-93980000D03*
X143256000Y-93980000D03*
X145796000Y-91440000D03*
X143256000Y-91440000D03*
X145796000Y-88900000D03*
X143256000Y-88900000D03*
X145796000Y-86360000D03*
X143256000Y-86360000D03*
X145796000Y-83820000D03*
X143256000Y-83820000D03*
X145796000Y-81280000D03*
X143256000Y-81280000D03*
X145796000Y-78740000D03*
X143256000Y-78740000D03*
X145796000Y-76200000D03*
X143256000Y-76200000D03*
X145796000Y-73660000D03*
X143256000Y-73660000D03*
X198882000Y-49393000D03*
X198882000Y-138293000D03*
X196342000Y-54483000D03*
X196342000Y-57023000D03*
X196342000Y-59563000D03*
X196342000Y-62103000D03*
X196342000Y-64643000D03*
X196342000Y-67183000D03*
X196342000Y-69723000D03*
X196342000Y-72263000D03*
X196342000Y-74803000D03*
X196342000Y-77343000D03*
X196342000Y-79883000D03*
X196342000Y-82423000D03*
X196342000Y-84963000D03*
X196342000Y-87503000D03*
X196342000Y-90043000D03*
X196342000Y-92583000D03*
X196342000Y-95123000D03*
X196342000Y-97663000D03*
X196342000Y-100203000D03*
X196342000Y-102743000D03*
X196342000Y-105283000D03*
X196342000Y-107823000D03*
X196342000Y-110363000D03*
X196342000Y-112903000D03*
X196342000Y-115443000D03*
X196342000Y-117983000D03*
X196342000Y-120523000D03*
X196342000Y-123063000D03*
X196342000Y-125603000D03*
X196342000Y-128143000D03*
X196342000Y-130683000D03*
X196342000Y-133223000D03*
X193802000Y-54483000D03*
X193802000Y-57023000D03*
X193802000Y-59563000D03*
X193802000Y-62103000D03*
X193802000Y-64643000D03*
X193802000Y-67183000D03*
X193802000Y-69723000D03*
X193802000Y-72263000D03*
X193802000Y-74803000D03*
X193802000Y-77343000D03*
X193802000Y-79883000D03*
X193802000Y-82423000D03*
X193802000Y-84963000D03*
X193802000Y-87503000D03*
X193802000Y-90043000D03*
X193802000Y-92583000D03*
X193802000Y-95123000D03*
X193802000Y-97663000D03*
X193802000Y-100203000D03*
X193802000Y-102743000D03*
X193802000Y-105283000D03*
X193802000Y-107823000D03*
X193802000Y-110363000D03*
X193802000Y-112903000D03*
X193802000Y-115443000D03*
X193802000Y-117983000D03*
X193802000Y-120523000D03*
X193802000Y-123063000D03*
X193802000Y-125603000D03*
X193802000Y-128143000D03*
X193802000Y-130683000D03*
X193802000Y-133223000D03*
X153162000Y-87889000D03*
X155702000Y-87889000D03*
X158242000Y-87889000D03*
X160782000Y-87889000D03*
X163322000Y-87889000D03*
X165862000Y-87889000D03*
X168402000Y-87889000D03*
X170942000Y-87889000D03*
X173482000Y-87889000D03*
X176022000Y-87889000D03*
X178562000Y-87889000D03*
X181102000Y-87889000D03*
X183642000Y-87889000D03*
X186182000Y-87889000D03*
X186182000Y-72649000D03*
X183642000Y-72649000D03*
X181102000Y-72649000D03*
X178562000Y-72649000D03*
X176022000Y-72649000D03*
X173482000Y-72649000D03*
X170942000Y-72649000D03*
X168402000Y-72649000D03*
X165862000Y-72649000D03*
X163322000Y-72649000D03*
X160782000Y-72649000D03*
X158242000Y-72649000D03*
X155702000Y-72649000D03*
X153162000Y-72649000D03*
X186182000Y-119253000D03*
X186182000Y-116713000D03*
X186182000Y-114173000D03*
X186182000Y-111633000D03*
X186182000Y-109093000D03*
X186182000Y-106553000D03*
X186182000Y-104013000D03*
X186182000Y-101473000D03*
X186182000Y-98933000D03*
X186182000Y-96393000D03*
X178562000Y-96393000D03*
X178562000Y-98933000D03*
X178562000Y-101473000D03*
X178562000Y-104013000D03*
X178562000Y-106553000D03*
X178562000Y-109093000D03*
X178562000Y-111633000D03*
X178562000Y-114173000D03*
X178562000Y-116713000D03*
X178562000Y-119253000D03*
X173482000Y-116713000D03*
X173482000Y-114173000D03*
X173482000Y-111633000D03*
X173482000Y-109093000D03*
X173482000Y-106553000D03*
X173482000Y-104013000D03*
X173482000Y-101473000D03*
X173482000Y-98933000D03*
X165862000Y-98933000D03*
X165862000Y-101473000D03*
X165862000Y-104013000D03*
X165862000Y-106553000D03*
X165862000Y-109093000D03*
X165862000Y-111633000D03*
X165862000Y-114173000D03*
X165862000Y-116713000D03*
X159512000Y-114173000D03*
X159512000Y-111633000D03*
X159512000Y-109093000D03*
X159512000Y-106553000D03*
X159512000Y-104013000D03*
X159512000Y-101473000D03*
X159512000Y-98933000D03*
X151892000Y-98933000D03*
X151892000Y-101473000D03*
X151892000Y-104013000D03*
X151892000Y-106553000D03*
X151892000Y-109093000D03*
X151892000Y-111633000D03*
X151892000Y-114173000D03*
X158242000Y-59944000D03*
X158242000Y-67564000D03*
X165862000Y-67564000D03*
X165862000Y-59944000D03*
X150622000Y-64643000D03*
X148082000Y-64643000D03*
X145542000Y-64643000D03*
X143002000Y-64643000D03*
X140462000Y-64643000D03*
M02*
