%TF.GenerationSoftware,KiCad,Pcbnew,8.0.5+1*%
%TF.CreationDate,2024-11-07T11:00:00+01:00*%
%TF.ProjectId,QL_MiniTrump3,514c5f4d-696e-4695-9472-756d70332e6b,02*%
%TF.SameCoordinates,Original*%
%TF.FileFunction,Soldermask,Bot*%
%TF.FilePolarity,Negative*%
%FSLAX46Y46*%
G04 Gerber Fmt 4.6, Leading zero omitted, Abs format (unit mm)*
G04 Created by KiCad (PCBNEW 8.0.5+1) date 2024-11-07 11:00:00*
%MOMM*%
%LPD*%
G01*
G04 APERTURE LIST*
G04 Aperture macros list*
%AMRoundRect*
0 Rectangle with rounded corners*
0 $1 Rounding radius*
0 $2 $3 $4 $5 $6 $7 $8 $9 X,Y pos of 4 corners*
0 Add a 4 corners polygon primitive as box body*
4,1,4,$2,$3,$4,$5,$6,$7,$8,$9,$2,$3,0*
0 Add four circle primitives for the rounded corners*
1,1,$1+$1,$2,$3*
1,1,$1+$1,$4,$5*
1,1,$1+$1,$6,$7*
1,1,$1+$1,$8,$9*
0 Add four rect primitives between the rounded corners*
20,1,$1+$1,$2,$3,$4,$5,0*
20,1,$1+$1,$4,$5,$6,$7,0*
20,1,$1+$1,$6,$7,$8,$9,0*
20,1,$1+$1,$8,$9,$2,$3,0*%
%AMFreePoly0*
4,1,19,0.500000,-0.750000,0.000000,-0.750000,0.000000,-0.744911,-0.071157,-0.744911,-0.207708,-0.704816,-0.327430,-0.627875,-0.420627,-0.520320,-0.479746,-0.390866,-0.500000,-0.250000,-0.500000,0.250000,-0.479746,0.390866,-0.420627,0.520320,-0.327430,0.627875,-0.207708,0.704816,-0.071157,0.744911,0.000000,0.744911,0.000000,0.750000,0.500000,0.750000,0.500000,-0.750000,0.500000,-0.750000,
$1*%
%AMFreePoly1*
4,1,19,0.000000,0.744911,0.071157,0.744911,0.207708,0.704816,0.327430,0.627875,0.420627,0.520320,0.479746,0.390866,0.500000,0.250000,0.500000,-0.250000,0.479746,-0.390866,0.420627,-0.520320,0.327430,-0.627875,0.207708,-0.704816,0.071157,-0.744911,0.000000,-0.744911,0.000000,-0.750000,-0.500000,-0.750000,-0.500000,0.750000,0.000000,0.750000,0.000000,0.744911,0.000000,0.744911,
$1*%
G04 Aperture macros list end*
%ADD10C,0.010000*%
%ADD11C,0.300000*%
%ADD12RoundRect,0.243750X-0.243750X-0.456250X0.243750X-0.456250X0.243750X0.456250X-0.243750X0.456250X0*%
%ADD13RoundRect,0.243750X0.243750X0.456250X-0.243750X0.456250X-0.243750X-0.456250X0.243750X-0.456250X0*%
%ADD14FreePoly0,180.000000*%
%ADD15FreePoly1,180.000000*%
%ADD16O,3.500000X3.500000*%
%ADD17R,1.905000X2.000000*%
%ADD18O,1.905000X2.000000*%
%ADD19R,1.600000X1.600000*%
%ADD20O,1.600000X1.600000*%
%ADD21C,2.850000*%
%ADD22RoundRect,0.249999X-0.525001X0.525001X-0.525001X-0.525001X0.525001X-0.525001X0.525001X0.525001X0*%
%ADD23C,1.550000*%
%ADD24R,1.700000X1.700000*%
%ADD25O,1.700000X1.700000*%
%ADD26RoundRect,0.249999X0.525001X-0.525001X0.525001X0.525001X-0.525001X0.525001X-0.525001X-0.525001X0*%
%ADD27C,1.600000*%
%ADD28RoundRect,0.250000X0.475000X-0.250000X0.475000X0.250000X-0.475000X0.250000X-0.475000X-0.250000X0*%
%ADD29RoundRect,0.250000X-0.475000X0.250000X-0.475000X-0.250000X0.475000X-0.250000X0.475000X0.250000X0*%
%ADD30RoundRect,0.250000X-0.250000X-0.475000X0.250000X-0.475000X0.250000X0.475000X-0.250000X0.475000X0*%
%ADD31RoundRect,0.250000X0.250000X0.475000X-0.250000X0.475000X-0.250000X-0.475000X0.250000X-0.475000X0*%
G04 APERTURE END LIST*
D10*
X192129788Y-136104410D02*
X192353507Y-136288600D01*
X192583720Y-136483297D01*
X192702279Y-136586212D01*
X192823681Y-136693706D01*
X192948035Y-136806202D01*
X193074190Y-136922613D01*
X193200703Y-137041601D01*
X193326131Y-137161830D01*
X193449033Y-137281962D01*
X193567963Y-137400659D01*
X193681481Y-137516584D01*
X193788143Y-137628398D01*
X193886811Y-137735099D01*
X193977583Y-137836713D01*
X194060865Y-137933593D01*
X194137063Y-138026088D01*
X194206582Y-138114549D01*
X194269828Y-138199327D01*
X194327208Y-138280771D01*
X194379126Y-138359233D01*
X194403156Y-138397448D01*
X194425957Y-138435019D01*
X194447564Y-138471971D01*
X194468010Y-138508327D01*
X194487330Y-138544111D01*
X194505559Y-138579346D01*
X194522730Y-138614056D01*
X194538878Y-138648265D01*
X194554037Y-138681996D01*
X194568242Y-138715273D01*
X194593924Y-138780559D01*
X194616198Y-138844311D01*
X194635339Y-138906719D01*
X194651570Y-138968051D01*
X194658606Y-138998420D01*
X194664918Y-139028669D01*
X194670504Y-139058856D01*
X194675361Y-139089038D01*
X194679487Y-139119275D01*
X194682878Y-139149623D01*
X194685533Y-139180142D01*
X194687448Y-139210890D01*
X194688621Y-139241923D01*
X194689049Y-139273302D01*
X194688729Y-139305083D01*
X194687660Y-139337324D01*
X194685837Y-139370085D01*
X194683259Y-139403423D01*
X194675783Y-139471904D01*
X194665044Y-139542440D01*
X194658377Y-139578327D01*
X194650808Y-139614547D01*
X194642306Y-139651038D01*
X194632844Y-139687740D01*
X194622391Y-139724592D01*
X194610919Y-139761533D01*
X194598399Y-139798504D01*
X194584802Y-139835443D01*
X194570099Y-139872290D01*
X194554260Y-139908983D01*
X194537257Y-139945464D01*
X194519061Y-139981670D01*
X194499656Y-140017497D01*
X194479077Y-140052936D01*
X194457370Y-140087927D01*
X194434582Y-140122415D01*
X194410756Y-140156341D01*
X194385940Y-140189648D01*
X194360179Y-140222279D01*
X194333518Y-140254177D01*
X194306003Y-140285283D01*
X194277680Y-140315541D01*
X194248594Y-140344892D01*
X194218792Y-140373281D01*
X194188318Y-140400649D01*
X194157219Y-140426939D01*
X194125540Y-140452093D01*
X194093327Y-140476055D01*
X194060615Y-140498756D01*
X194027432Y-140520230D01*
X193993793Y-140540497D01*
X193959711Y-140559581D01*
X193925202Y-140577504D01*
X193890279Y-140594286D01*
X193854958Y-140609952D01*
X193819252Y-140624523D01*
X193783176Y-140638020D01*
X193746744Y-140650467D01*
X193709971Y-140661886D01*
X193672871Y-140672298D01*
X193635458Y-140681726D01*
X193597748Y-140690192D01*
X193559753Y-140697718D01*
X193521490Y-140704326D01*
X193482966Y-140710054D01*
X193444208Y-140714860D01*
X193405235Y-140718718D01*
X193366066Y-140721601D01*
X193326719Y-140723484D01*
X193287214Y-140724340D01*
X193247571Y-140724142D01*
X193207807Y-140722866D01*
X193167943Y-140720483D01*
X193127996Y-140716968D01*
X193087987Y-140712295D01*
X193047935Y-140706438D01*
X193007857Y-140699369D01*
X192967775Y-140691063D01*
X192927706Y-140681494D01*
X192887669Y-140670635D01*
X192847692Y-140658449D01*
X192807835Y-140644984D01*
X192768167Y-140630272D01*
X192728754Y-140614343D01*
X192689664Y-140597229D01*
X192650966Y-140578961D01*
X192612726Y-140559571D01*
X192575014Y-140539089D01*
X192537895Y-140517547D01*
X192501439Y-140494976D01*
X192465713Y-140471408D01*
X192430784Y-140446874D01*
X192396721Y-140421405D01*
X192363591Y-140395033D01*
X192331462Y-140367788D01*
X192300402Y-140339702D01*
X192278161Y-140318441D01*
X192256532Y-140296783D01*
X192235483Y-140274741D01*
X192214982Y-140252330D01*
X192194994Y-140229565D01*
X192175489Y-140206459D01*
X192156433Y-140183026D01*
X192137793Y-140159282D01*
X192142002Y-140244441D01*
X192146516Y-140325298D01*
X192151701Y-140402492D01*
X192157923Y-140476665D01*
X192162564Y-140522728D01*
X192167870Y-140568429D01*
X192173939Y-140613601D01*
X192180870Y-140658077D01*
X192188761Y-140701688D01*
X192197711Y-140744268D01*
X192207819Y-140785649D01*
X192219182Y-140825664D01*
X192225365Y-140845093D01*
X192231899Y-140864167D01*
X192238795Y-140882912D01*
X192246066Y-140901353D01*
X192253725Y-140919516D01*
X192261783Y-140937426D01*
X192270253Y-140955109D01*
X192279148Y-140972591D01*
X192288480Y-140989896D01*
X192298260Y-141007052D01*
X192308502Y-141024082D01*
X192319218Y-141041013D01*
X192330421Y-141057871D01*
X192342121Y-141074680D01*
X192354333Y-141091467D01*
X192367068Y-141108257D01*
X192380335Y-141125085D01*
X192394092Y-141141898D01*
X192408297Y-141158651D01*
X192422907Y-141175304D01*
X192437880Y-141191814D01*
X192453173Y-141208138D01*
X192468743Y-141224235D01*
X192484549Y-141240062D01*
X192500546Y-141255578D01*
X192516693Y-141270739D01*
X192532948Y-141285504D01*
X192549266Y-141299831D01*
X192565607Y-141313677D01*
X192581926Y-141327000D01*
X192598183Y-141339758D01*
X192614333Y-141351909D01*
X192630333Y-141363421D01*
X192646134Y-141374301D01*
X192661687Y-141384563D01*
X192676945Y-141394222D01*
X192691857Y-141403291D01*
X192706376Y-141411785D01*
X192720453Y-141419718D01*
X192734038Y-141427104D01*
X192759541Y-141440296D01*
X192782496Y-141451473D01*
X192802513Y-141460750D01*
X192819202Y-141468242D01*
X192831765Y-141474082D01*
X192835767Y-141476439D01*
X192837780Y-141478452D01*
X192837929Y-141479338D01*
X192837448Y-141480146D01*
X192834418Y-141481544D01*
X192828338Y-141482669D01*
X192818854Y-141483547D01*
X192788258Y-141484651D01*
X192739802Y-141485048D01*
X192578003Y-141484477D01*
X191909307Y-141481670D01*
X191240604Y-141484477D01*
X191147953Y-141484926D01*
X191110622Y-141485040D01*
X191078815Y-141485048D01*
X191052179Y-141484926D01*
X191030361Y-141484651D01*
X191013008Y-141484199D01*
X191005895Y-141483900D01*
X190999766Y-141483547D01*
X190994576Y-141483138D01*
X190990281Y-141482669D01*
X190986837Y-141482139D01*
X190984200Y-141481544D01*
X190982326Y-141480880D01*
X190981661Y-141480522D01*
X190981170Y-141480146D01*
X190980848Y-141479751D01*
X190980689Y-141479338D01*
X190980687Y-141478905D01*
X190980838Y-141478452D01*
X190981134Y-141477980D01*
X190981572Y-141477487D01*
X190982849Y-141476439D01*
X190984623Y-141475305D01*
X190986851Y-141474082D01*
X190992490Y-141471357D01*
X190999412Y-141468242D01*
X191036113Y-141451473D01*
X191059066Y-141440296D01*
X191084567Y-141427104D01*
X191112228Y-141411785D01*
X191141660Y-141394222D01*
X191156918Y-141384563D01*
X191172472Y-141374301D01*
X191188275Y-141363421D01*
X191204276Y-141351909D01*
X191220427Y-141339758D01*
X191236685Y-141327000D01*
X191253005Y-141313677D01*
X191269347Y-141299831D01*
X191285666Y-141285504D01*
X191301921Y-141270739D01*
X191334066Y-141240062D01*
X191365441Y-141208138D01*
X191380733Y-141191814D01*
X191395705Y-141175304D01*
X191410313Y-141158651D01*
X191424516Y-141141898D01*
X191438270Y-141125085D01*
X191451533Y-141108257D01*
X191464270Y-141091467D01*
X191476484Y-141074680D01*
X191488187Y-141057871D01*
X191499391Y-141041013D01*
X191510108Y-141024082D01*
X191520352Y-141007052D01*
X191530134Y-140989896D01*
X191539466Y-140972591D01*
X191548361Y-140955109D01*
X191556832Y-140937426D01*
X191564891Y-140919516D01*
X191572550Y-140901353D01*
X191579821Y-140882912D01*
X191586717Y-140864167D01*
X191593250Y-140845093D01*
X191599433Y-140825664D01*
X191610797Y-140785649D01*
X191620904Y-140744268D01*
X191629855Y-140701688D01*
X191637746Y-140658077D01*
X191644677Y-140613601D01*
X191650746Y-140568429D01*
X191656051Y-140522728D01*
X191660690Y-140476665D01*
X191666908Y-140402492D01*
X191672087Y-140325298D01*
X191676599Y-140244441D01*
X191680819Y-140159282D01*
X191662174Y-140182991D01*
X191643111Y-140206407D01*
X191623600Y-140229511D01*
X191603607Y-140252284D01*
X191583100Y-140274709D01*
X191562046Y-140296766D01*
X191540413Y-140318436D01*
X191518169Y-140339702D01*
X191487106Y-140367788D01*
X191454975Y-140395033D01*
X191421842Y-140421405D01*
X191387776Y-140446874D01*
X191352844Y-140471408D01*
X191317114Y-140494976D01*
X191280654Y-140517547D01*
X191243532Y-140539089D01*
X191205816Y-140559571D01*
X191167573Y-140578961D01*
X191128872Y-140597229D01*
X191089780Y-140614343D01*
X191050365Y-140630272D01*
X191010695Y-140644984D01*
X190970837Y-140658449D01*
X190930861Y-140670635D01*
X190880808Y-140683993D01*
X190830712Y-140695352D01*
X190780610Y-140704763D01*
X190730539Y-140712276D01*
X190680537Y-140717941D01*
X190630641Y-140721807D01*
X190580888Y-140723925D01*
X190531316Y-140724346D01*
X190501676Y-140723821D01*
X190472124Y-140722711D01*
X190442669Y-140721026D01*
X190413316Y-140718776D01*
X190384075Y-140715971D01*
X190354951Y-140712621D01*
X190325953Y-140708736D01*
X190297088Y-140704326D01*
X190258822Y-140697718D01*
X190220824Y-140690192D01*
X190183110Y-140681726D01*
X190145692Y-140672298D01*
X190108588Y-140661886D01*
X190071810Y-140650467D01*
X190035373Y-140638020D01*
X189999292Y-140624523D01*
X189963582Y-140609952D01*
X189928257Y-140594286D01*
X189893331Y-140577504D01*
X189858820Y-140559581D01*
X189824737Y-140540497D01*
X189791098Y-140520230D01*
X189757917Y-140498756D01*
X189725208Y-140476055D01*
X189692992Y-140452093D01*
X189661311Y-140426939D01*
X189630210Y-140400649D01*
X189599734Y-140373281D01*
X189569930Y-140344892D01*
X189540843Y-140315541D01*
X189512519Y-140285283D01*
X189485003Y-140254177D01*
X189458342Y-140222279D01*
X189432580Y-140189648D01*
X189407764Y-140156341D01*
X189383940Y-140122415D01*
X189361152Y-140087927D01*
X189339447Y-140052936D01*
X189318870Y-140017497D01*
X189299467Y-139981670D01*
X189281272Y-139945464D01*
X189264270Y-139908983D01*
X189248432Y-139872290D01*
X189233728Y-139835443D01*
X189220130Y-139798504D01*
X189207608Y-139761533D01*
X189196135Y-139724592D01*
X189185682Y-139687740D01*
X189176218Y-139651038D01*
X189167716Y-139614547D01*
X189160147Y-139578327D01*
X189153481Y-139542440D01*
X189142745Y-139471904D01*
X189135278Y-139403423D01*
X189132702Y-139370085D01*
X189130883Y-139337324D01*
X189129818Y-139305083D01*
X189129503Y-139273302D01*
X189129937Y-139241923D01*
X189131115Y-139210890D01*
X189133036Y-139180142D01*
X189135696Y-139149623D01*
X189139092Y-139119275D01*
X189143222Y-139089038D01*
X189148082Y-139058856D01*
X189153669Y-139028669D01*
X189159982Y-138998420D01*
X189167016Y-138968051D01*
X189183237Y-138906719D01*
X189202373Y-138844311D01*
X189224639Y-138780559D01*
X189250312Y-138715273D01*
X189279666Y-138648265D01*
X189312977Y-138579346D01*
X189350520Y-138508327D01*
X189392571Y-138435019D01*
X189439405Y-138359233D01*
X189491318Y-138280771D01*
X189548694Y-138199327D01*
X189611938Y-138114549D01*
X189681456Y-138026088D01*
X189757653Y-137933593D01*
X189840935Y-137836713D01*
X189931707Y-137735099D01*
X190030376Y-137628398D01*
X190137040Y-137516584D01*
X190250564Y-137400659D01*
X190369504Y-137281962D01*
X190492416Y-137161830D01*
X190617854Y-137041601D01*
X190744374Y-136922613D01*
X190870532Y-136806202D01*
X190994883Y-136693706D01*
X191116291Y-136586212D01*
X191234857Y-136483297D01*
X191350987Y-136384310D01*
X191465086Y-136288600D01*
X191688818Y-136104410D01*
X191909299Y-135925518D01*
X191909314Y-135925518D01*
X192129788Y-136104410D01*
G36*
X192129788Y-136104410D02*
G01*
X192353507Y-136288600D01*
X192583720Y-136483297D01*
X192702279Y-136586212D01*
X192823681Y-136693706D01*
X192948035Y-136806202D01*
X193074190Y-136922613D01*
X193200703Y-137041601D01*
X193326131Y-137161830D01*
X193449033Y-137281962D01*
X193567963Y-137400659D01*
X193681481Y-137516584D01*
X193788143Y-137628398D01*
X193886811Y-137735099D01*
X193977583Y-137836713D01*
X194060865Y-137933593D01*
X194137063Y-138026088D01*
X194206582Y-138114549D01*
X194269828Y-138199327D01*
X194327208Y-138280771D01*
X194379126Y-138359233D01*
X194403156Y-138397448D01*
X194425957Y-138435019D01*
X194447564Y-138471971D01*
X194468010Y-138508327D01*
X194487330Y-138544111D01*
X194505559Y-138579346D01*
X194522730Y-138614056D01*
X194538878Y-138648265D01*
X194554037Y-138681996D01*
X194568242Y-138715273D01*
X194593924Y-138780559D01*
X194616198Y-138844311D01*
X194635339Y-138906719D01*
X194651570Y-138968051D01*
X194658606Y-138998420D01*
X194664918Y-139028669D01*
X194670504Y-139058856D01*
X194675361Y-139089038D01*
X194679487Y-139119275D01*
X194682878Y-139149623D01*
X194685533Y-139180142D01*
X194687448Y-139210890D01*
X194688621Y-139241923D01*
X194689049Y-139273302D01*
X194688729Y-139305083D01*
X194687660Y-139337324D01*
X194685837Y-139370085D01*
X194683259Y-139403423D01*
X194675783Y-139471904D01*
X194665044Y-139542440D01*
X194658377Y-139578327D01*
X194650808Y-139614547D01*
X194642306Y-139651038D01*
X194632844Y-139687740D01*
X194622391Y-139724592D01*
X194610919Y-139761533D01*
X194598399Y-139798504D01*
X194584802Y-139835443D01*
X194570099Y-139872290D01*
X194554260Y-139908983D01*
X194537257Y-139945464D01*
X194519061Y-139981670D01*
X194499656Y-140017497D01*
X194479077Y-140052936D01*
X194457370Y-140087927D01*
X194434582Y-140122415D01*
X194410756Y-140156341D01*
X194385940Y-140189648D01*
X194360179Y-140222279D01*
X194333518Y-140254177D01*
X194306003Y-140285283D01*
X194277680Y-140315541D01*
X194248594Y-140344892D01*
X194218792Y-140373281D01*
X194188318Y-140400649D01*
X194157219Y-140426939D01*
X194125540Y-140452093D01*
X194093327Y-140476055D01*
X194060615Y-140498756D01*
X194027432Y-140520230D01*
X193993793Y-140540497D01*
X193959711Y-140559581D01*
X193925202Y-140577504D01*
X193890279Y-140594286D01*
X193854958Y-140609952D01*
X193819252Y-140624523D01*
X193783176Y-140638020D01*
X193746744Y-140650467D01*
X193709971Y-140661886D01*
X193672871Y-140672298D01*
X193635458Y-140681726D01*
X193597748Y-140690192D01*
X193559753Y-140697718D01*
X193521490Y-140704326D01*
X193482966Y-140710054D01*
X193444208Y-140714860D01*
X193405235Y-140718718D01*
X193366066Y-140721601D01*
X193326719Y-140723484D01*
X193287214Y-140724340D01*
X193247571Y-140724142D01*
X193207807Y-140722866D01*
X193167943Y-140720483D01*
X193127996Y-140716968D01*
X193087987Y-140712295D01*
X193047935Y-140706438D01*
X193007857Y-140699369D01*
X192967775Y-140691063D01*
X192927706Y-140681494D01*
X192887669Y-140670635D01*
X192847692Y-140658449D01*
X192807835Y-140644984D01*
X192768167Y-140630272D01*
X192728754Y-140614343D01*
X192689664Y-140597229D01*
X192650966Y-140578961D01*
X192612726Y-140559571D01*
X192575014Y-140539089D01*
X192537895Y-140517547D01*
X192501439Y-140494976D01*
X192465713Y-140471408D01*
X192430784Y-140446874D01*
X192396721Y-140421405D01*
X192363591Y-140395033D01*
X192331462Y-140367788D01*
X192300402Y-140339702D01*
X192278161Y-140318441D01*
X192256532Y-140296783D01*
X192235483Y-140274741D01*
X192214982Y-140252330D01*
X192194994Y-140229565D01*
X192175489Y-140206459D01*
X192156433Y-140183026D01*
X192137793Y-140159282D01*
X192142002Y-140244441D01*
X192146516Y-140325298D01*
X192151701Y-140402492D01*
X192157923Y-140476665D01*
X192162564Y-140522728D01*
X192167870Y-140568429D01*
X192173939Y-140613601D01*
X192180870Y-140658077D01*
X192188761Y-140701688D01*
X192197711Y-140744268D01*
X192207819Y-140785649D01*
X192219182Y-140825664D01*
X192225365Y-140845093D01*
X192231899Y-140864167D01*
X192238795Y-140882912D01*
X192246066Y-140901353D01*
X192253725Y-140919516D01*
X192261783Y-140937426D01*
X192270253Y-140955109D01*
X192279148Y-140972591D01*
X192288480Y-140989896D01*
X192298260Y-141007052D01*
X192308502Y-141024082D01*
X192319218Y-141041013D01*
X192330421Y-141057871D01*
X192342121Y-141074680D01*
X192354333Y-141091467D01*
X192367068Y-141108257D01*
X192380335Y-141125085D01*
X192394092Y-141141898D01*
X192408297Y-141158651D01*
X192422907Y-141175304D01*
X192437880Y-141191814D01*
X192453173Y-141208138D01*
X192468743Y-141224235D01*
X192484549Y-141240062D01*
X192500546Y-141255578D01*
X192516693Y-141270739D01*
X192532948Y-141285504D01*
X192549266Y-141299831D01*
X192565607Y-141313677D01*
X192581926Y-141327000D01*
X192598183Y-141339758D01*
X192614333Y-141351909D01*
X192630333Y-141363421D01*
X192646134Y-141374301D01*
X192661687Y-141384563D01*
X192676945Y-141394222D01*
X192691857Y-141403291D01*
X192706376Y-141411785D01*
X192720453Y-141419718D01*
X192734038Y-141427104D01*
X192759541Y-141440296D01*
X192782496Y-141451473D01*
X192802513Y-141460750D01*
X192819202Y-141468242D01*
X192831765Y-141474082D01*
X192835767Y-141476439D01*
X192837780Y-141478452D01*
X192837929Y-141479338D01*
X192837448Y-141480146D01*
X192834418Y-141481544D01*
X192828338Y-141482669D01*
X192818854Y-141483547D01*
X192788258Y-141484651D01*
X192739802Y-141485048D01*
X192578003Y-141484477D01*
X191909307Y-141481670D01*
X191240604Y-141484477D01*
X191147953Y-141484926D01*
X191110622Y-141485040D01*
X191078815Y-141485048D01*
X191052179Y-141484926D01*
X191030361Y-141484651D01*
X191013008Y-141484199D01*
X191005895Y-141483900D01*
X190999766Y-141483547D01*
X190994576Y-141483138D01*
X190990281Y-141482669D01*
X190986837Y-141482139D01*
X190984200Y-141481544D01*
X190982326Y-141480880D01*
X190981661Y-141480522D01*
X190981170Y-141480146D01*
X190980848Y-141479751D01*
X190980689Y-141479338D01*
X190980687Y-141478905D01*
X190980838Y-141478452D01*
X190981134Y-141477980D01*
X190981572Y-141477487D01*
X190982849Y-141476439D01*
X190984623Y-141475305D01*
X190986851Y-141474082D01*
X190992490Y-141471357D01*
X190999412Y-141468242D01*
X191036113Y-141451473D01*
X191059066Y-141440296D01*
X191084567Y-141427104D01*
X191112228Y-141411785D01*
X191141660Y-141394222D01*
X191156918Y-141384563D01*
X191172472Y-141374301D01*
X191188275Y-141363421D01*
X191204276Y-141351909D01*
X191220427Y-141339758D01*
X191236685Y-141327000D01*
X191253005Y-141313677D01*
X191269347Y-141299831D01*
X191285666Y-141285504D01*
X191301921Y-141270739D01*
X191334066Y-141240062D01*
X191365441Y-141208138D01*
X191380733Y-141191814D01*
X191395705Y-141175304D01*
X191410313Y-141158651D01*
X191424516Y-141141898D01*
X191438270Y-141125085D01*
X191451533Y-141108257D01*
X191464270Y-141091467D01*
X191476484Y-141074680D01*
X191488187Y-141057871D01*
X191499391Y-141041013D01*
X191510108Y-141024082D01*
X191520352Y-141007052D01*
X191530134Y-140989896D01*
X191539466Y-140972591D01*
X191548361Y-140955109D01*
X191556832Y-140937426D01*
X191564891Y-140919516D01*
X191572550Y-140901353D01*
X191579821Y-140882912D01*
X191586717Y-140864167D01*
X191593250Y-140845093D01*
X191599433Y-140825664D01*
X191610797Y-140785649D01*
X191620904Y-140744268D01*
X191629855Y-140701688D01*
X191637746Y-140658077D01*
X191644677Y-140613601D01*
X191650746Y-140568429D01*
X191656051Y-140522728D01*
X191660690Y-140476665D01*
X191666908Y-140402492D01*
X191672087Y-140325298D01*
X191676599Y-140244441D01*
X191680819Y-140159282D01*
X191662174Y-140182991D01*
X191643111Y-140206407D01*
X191623600Y-140229511D01*
X191603607Y-140252284D01*
X191583100Y-140274709D01*
X191562046Y-140296766D01*
X191540413Y-140318436D01*
X191518169Y-140339702D01*
X191487106Y-140367788D01*
X191454975Y-140395033D01*
X191421842Y-140421405D01*
X191387776Y-140446874D01*
X191352844Y-140471408D01*
X191317114Y-140494976D01*
X191280654Y-140517547D01*
X191243532Y-140539089D01*
X191205816Y-140559571D01*
X191167573Y-140578961D01*
X191128872Y-140597229D01*
X191089780Y-140614343D01*
X191050365Y-140630272D01*
X191010695Y-140644984D01*
X190970837Y-140658449D01*
X190930861Y-140670635D01*
X190880808Y-140683993D01*
X190830712Y-140695352D01*
X190780610Y-140704763D01*
X190730539Y-140712276D01*
X190680537Y-140717941D01*
X190630641Y-140721807D01*
X190580888Y-140723925D01*
X190531316Y-140724346D01*
X190501676Y-140723821D01*
X190472124Y-140722711D01*
X190442669Y-140721026D01*
X190413316Y-140718776D01*
X190384075Y-140715971D01*
X190354951Y-140712621D01*
X190325953Y-140708736D01*
X190297088Y-140704326D01*
X190258822Y-140697718D01*
X190220824Y-140690192D01*
X190183110Y-140681726D01*
X190145692Y-140672298D01*
X190108588Y-140661886D01*
X190071810Y-140650467D01*
X190035373Y-140638020D01*
X189999292Y-140624523D01*
X189963582Y-140609952D01*
X189928257Y-140594286D01*
X189893331Y-140577504D01*
X189858820Y-140559581D01*
X189824737Y-140540497D01*
X189791098Y-140520230D01*
X189757917Y-140498756D01*
X189725208Y-140476055D01*
X189692992Y-140452093D01*
X189661311Y-140426939D01*
X189630210Y-140400649D01*
X189599734Y-140373281D01*
X189569930Y-140344892D01*
X189540843Y-140315541D01*
X189512519Y-140285283D01*
X189485003Y-140254177D01*
X189458342Y-140222279D01*
X189432580Y-140189648D01*
X189407764Y-140156341D01*
X189383940Y-140122415D01*
X189361152Y-140087927D01*
X189339447Y-140052936D01*
X189318870Y-140017497D01*
X189299467Y-139981670D01*
X189281272Y-139945464D01*
X189264270Y-139908983D01*
X189248432Y-139872290D01*
X189233728Y-139835443D01*
X189220130Y-139798504D01*
X189207608Y-139761533D01*
X189196135Y-139724592D01*
X189185682Y-139687740D01*
X189176218Y-139651038D01*
X189167716Y-139614547D01*
X189160147Y-139578327D01*
X189153481Y-139542440D01*
X189142745Y-139471904D01*
X189135278Y-139403423D01*
X189132702Y-139370085D01*
X189130883Y-139337324D01*
X189129818Y-139305083D01*
X189129503Y-139273302D01*
X189129937Y-139241923D01*
X189131115Y-139210890D01*
X189133036Y-139180142D01*
X189135696Y-139149623D01*
X189139092Y-139119275D01*
X189143222Y-139089038D01*
X189148082Y-139058856D01*
X189153669Y-139028669D01*
X189159982Y-138998420D01*
X189167016Y-138968051D01*
X189183237Y-138906719D01*
X189202373Y-138844311D01*
X189224639Y-138780559D01*
X189250312Y-138715273D01*
X189279666Y-138648265D01*
X189312977Y-138579346D01*
X189350520Y-138508327D01*
X189392571Y-138435019D01*
X189439405Y-138359233D01*
X189491318Y-138280771D01*
X189548694Y-138199327D01*
X189611938Y-138114549D01*
X189681456Y-138026088D01*
X189757653Y-137933593D01*
X189840935Y-137836713D01*
X189931707Y-137735099D01*
X190030376Y-137628398D01*
X190137040Y-137516584D01*
X190250564Y-137400659D01*
X190369504Y-137281962D01*
X190492416Y-137161830D01*
X190617854Y-137041601D01*
X190744374Y-136922613D01*
X190870532Y-136806202D01*
X190994883Y-136693706D01*
X191116291Y-136586212D01*
X191234857Y-136483297D01*
X191350987Y-136384310D01*
X191465086Y-136288600D01*
X191688818Y-136104410D01*
X191909299Y-135925518D01*
X191909314Y-135925518D01*
X192129788Y-136104410D01*
G37*
D11*
G36*
X138193888Y-142785698D02*
G01*
X138291758Y-142448511D01*
X138397967Y-142142094D01*
X138527418Y-141834156D01*
X138635397Y-141621573D01*
X138816397Y-141322945D01*
X139009807Y-141034746D01*
X139212242Y-140748765D01*
X139406785Y-140482980D01*
X139624824Y-140192225D01*
X139841305Y-139903939D01*
X140040321Y-139635886D01*
X140229691Y-139374283D01*
X140291853Y-139283795D01*
X140462123Y-138995692D01*
X140595193Y-138696174D01*
X140673430Y-138375209D01*
X140688894Y-138153021D01*
X140648171Y-137816966D01*
X140526002Y-137520696D01*
X140344263Y-137285884D01*
X140087095Y-137086960D01*
X139762886Y-136964125D01*
X139489830Y-136936487D01*
X139154201Y-136979275D01*
X138850476Y-137107637D01*
X138602046Y-137298589D01*
X138385392Y-137552112D01*
X138230142Y-137845761D01*
X138197064Y-137937031D01*
X138072213Y-137638301D01*
X137881094Y-137373009D01*
X137814316Y-137303353D01*
X137561327Y-137107376D01*
X137255810Y-136975636D01*
X136921768Y-136931723D01*
X136593850Y-136972821D01*
X136277644Y-137111401D01*
X136068923Y-137279531D01*
X135869095Y-137534413D01*
X135745702Y-137848423D01*
X135717939Y-138108553D01*
X135750965Y-138449033D01*
X135840076Y-138772162D01*
X135918048Y-138964574D01*
X136078942Y-139267566D01*
X136259249Y-139547480D01*
X136454635Y-139819763D01*
X136650054Y-140073472D01*
X136685131Y-140117581D01*
X136903279Y-140397829D01*
X137102117Y-140661869D01*
X137315236Y-140957323D01*
X137500548Y-141229439D01*
X137681604Y-141517410D01*
X137747613Y-141631102D01*
X137903111Y-141942438D01*
X138030594Y-142261096D01*
X138133998Y-142574933D01*
X138193888Y-142785698D01*
G37*
G36*
X193331105Y-44551902D02*
G01*
X193160198Y-44832709D01*
X192979798Y-45115303D01*
X192789907Y-45399684D01*
X192590524Y-45685851D01*
X192381649Y-45973805D01*
X192309915Y-46070187D01*
X192106556Y-46339337D01*
X191877264Y-46636523D01*
X191664053Y-46905568D01*
X191435631Y-47183887D01*
X191201376Y-47455067D01*
X191434176Y-47718212D01*
X191657974Y-47990278D01*
X191879560Y-48270415D01*
X192085199Y-48536960D01*
X192309915Y-48833594D01*
X192530013Y-49134259D01*
X192736486Y-49428783D01*
X192929337Y-49717165D01*
X193108564Y-49999406D01*
X193274167Y-50275504D01*
X193326341Y-50366172D01*
X193489120Y-50073463D01*
X193658048Y-49804046D01*
X193696383Y-49746788D01*
X193888253Y-49468859D01*
X194073890Y-49207433D01*
X194276094Y-48928983D01*
X194494865Y-48633510D01*
X194593696Y-48501667D01*
X194811392Y-48224911D01*
X195041428Y-47939289D01*
X195264373Y-47664233D01*
X195437012Y-47451890D01*
X195216851Y-47194806D01*
X195010600Y-46943479D01*
X194788158Y-46663565D01*
X194590420Y-46408466D01*
X194381439Y-46133515D01*
X194250652Y-45959015D01*
X194058156Y-45695182D01*
X193874927Y-45431348D01*
X193672875Y-45123542D01*
X193483439Y-44815735D01*
X193331105Y-44551902D01*
G37*
G36*
X136332399Y-50583592D02*
G01*
X140248813Y-50583592D01*
X140188463Y-50337426D01*
X139841747Y-50258018D01*
X139530235Y-50170582D01*
X139227096Y-50047834D01*
X139195860Y-50029322D01*
X138932682Y-49815602D01*
X138726506Y-49555044D01*
X138622533Y-49374998D01*
X138495040Y-49069294D01*
X138420470Y-48752704D01*
X138398601Y-48455451D01*
X138381132Y-48385572D01*
X138544536Y-48675137D01*
X138755231Y-48919288D01*
X138987810Y-49101834D01*
X139292813Y-49261519D01*
X139602728Y-49347503D01*
X139812068Y-49363881D01*
X140133578Y-49327124D01*
X140450338Y-49201781D01*
X140704755Y-49010643D01*
X140728439Y-48987486D01*
X140926929Y-48735489D01*
X141060358Y-48419599D01*
X141104466Y-48097251D01*
X141104834Y-48063174D01*
X141071179Y-47742284D01*
X140956413Y-47427640D01*
X140760202Y-47153156D01*
X140511820Y-46942477D01*
X140214747Y-46812384D01*
X139974061Y-46783113D01*
X139647265Y-46832861D01*
X139378499Y-46940342D01*
X139521980Y-46648169D01*
X139537315Y-46606827D01*
X139595561Y-46285284D01*
X139596078Y-46249490D01*
X139552539Y-45904137D01*
X139421925Y-45597443D01*
X139227623Y-45352177D01*
X138953105Y-45142403D01*
X138636175Y-45019705D01*
X138311252Y-44983723D01*
X137986547Y-45019705D01*
X137668064Y-45142403D01*
X137390117Y-45352177D01*
X137176726Y-45621100D01*
X137051912Y-45923426D01*
X137015310Y-46227256D01*
X137054524Y-46565460D01*
X137183570Y-46876548D01*
X137220183Y-46932401D01*
X136937490Y-46811700D01*
X136650032Y-46775173D01*
X136316294Y-46826540D01*
X136017843Y-46980641D01*
X135838480Y-47140450D01*
X135643173Y-47412034D01*
X135528937Y-47724529D01*
X135495436Y-48044116D01*
X135532039Y-48375149D01*
X135656852Y-48699160D01*
X135847184Y-48957236D01*
X135870243Y-48981133D01*
X136119231Y-49180460D01*
X136427154Y-49314452D01*
X136770733Y-49359117D01*
X137104005Y-49314896D01*
X137369471Y-49219358D01*
X137655737Y-49055380D01*
X137901506Y-48842963D01*
X138102494Y-48594618D01*
X138198493Y-48444334D01*
X138168364Y-48778444D01*
X138095448Y-49088533D01*
X137992031Y-49349588D01*
X137817904Y-49631735D01*
X137586156Y-49875469D01*
X137399646Y-50016617D01*
X137103200Y-50155373D01*
X136768507Y-50254261D01*
X136433975Y-50328458D01*
X136387985Y-50337426D01*
X136332399Y-50583592D01*
G37*
D12*
%TO.C,D8*%
X181190500Y-116718000D03*
X183065500Y-116718000D03*
%TD*%
%TO.C,D7*%
X181190500Y-114178000D03*
X183065500Y-114178000D03*
%TD*%
%TO.C,D6*%
X181190500Y-111638000D03*
X183065500Y-111638000D03*
%TD*%
D13*
%TO.C,D1*%
X183182500Y-98044000D03*
X181307500Y-98044000D03*
%TD*%
D14*
%TO.C,JP1*%
X182402000Y-101498400D03*
D15*
X181102000Y-101498400D03*
%TD*%
D16*
%TO.C,U18*%
X184912000Y-49253000D03*
D17*
X182372000Y-65913000D03*
D18*
X184912000Y-65913000D03*
X187452000Y-65913000D03*
%TD*%
D19*
%TO.C,U14*%
X153162000Y-139573000D03*
D20*
X155702000Y-139573000D03*
X158242000Y-139573000D03*
X160782000Y-139573000D03*
X163322000Y-139573000D03*
X165862000Y-139573000D03*
X168402000Y-139573000D03*
X170942000Y-139573000D03*
X173482000Y-139573000D03*
X176022000Y-139573000D03*
X178562000Y-139573000D03*
X181102000Y-139573000D03*
X183642000Y-139573000D03*
X186182000Y-139573000D03*
X186182000Y-124333000D03*
X183642000Y-124333000D03*
X181102000Y-124333000D03*
X178562000Y-124333000D03*
X176022000Y-124333000D03*
X173482000Y-124333000D03*
X170942000Y-124333000D03*
X168402000Y-124333000D03*
X165862000Y-124333000D03*
X163322000Y-124333000D03*
X160782000Y-124333000D03*
X158242000Y-124333000D03*
X155702000Y-124333000D03*
X153162000Y-124333000D03*
%TD*%
D21*
%TO.C,J1*%
X130937000Y-138303000D03*
X130937000Y-49403000D03*
D22*
X133477000Y-54483000D03*
D23*
X133477000Y-57023000D03*
X133477000Y-59563000D03*
X133477000Y-62103000D03*
X133477000Y-64643000D03*
X133477000Y-67183000D03*
X133477000Y-69723000D03*
X133477000Y-72263000D03*
X133477000Y-74803000D03*
X133477000Y-77343000D03*
X133477000Y-79883000D03*
X133477000Y-82423000D03*
X133477000Y-84963000D03*
X133477000Y-87503000D03*
X133477000Y-90043000D03*
X133477000Y-92583000D03*
X133477000Y-95123000D03*
X133477000Y-97663000D03*
X133477000Y-100203000D03*
X133477000Y-102743000D03*
X133477000Y-105283000D03*
X133477000Y-107823000D03*
X133477000Y-110363000D03*
X133477000Y-112903000D03*
X133477000Y-115443000D03*
X133477000Y-117983000D03*
X133477000Y-120523000D03*
X133477000Y-123063000D03*
X133477000Y-125603000D03*
X133477000Y-128143000D03*
X133477000Y-130683000D03*
X133477000Y-133223000D03*
X136017000Y-54483000D03*
X136017000Y-57023000D03*
X136017000Y-59563000D03*
X136017000Y-62103000D03*
X136017000Y-64643000D03*
X136017000Y-67183000D03*
X136017000Y-69723000D03*
X136017000Y-72263000D03*
X136017000Y-74803000D03*
X136017000Y-77343000D03*
X136017000Y-79883000D03*
X136017000Y-82423000D03*
X136017000Y-84963000D03*
X136017000Y-87503000D03*
X136017000Y-90043000D03*
X136017000Y-92583000D03*
X136017000Y-95123000D03*
X136017000Y-97663000D03*
X136017000Y-100203000D03*
X136017000Y-102743000D03*
X136017000Y-105283000D03*
X136017000Y-107823000D03*
X136017000Y-110363000D03*
X136017000Y-112903000D03*
X136017000Y-115443000D03*
X136017000Y-117983000D03*
X136017000Y-120523000D03*
X136017000Y-123063000D03*
X136017000Y-125603000D03*
X136017000Y-128143000D03*
X136017000Y-130683000D03*
X136017000Y-133223000D03*
%TD*%
D24*
%TO.C,J2*%
X145796000Y-114300000D03*
D25*
X143256000Y-114300000D03*
X145796000Y-111760000D03*
X143256000Y-111760000D03*
X145796000Y-109220000D03*
X143256000Y-109220000D03*
X145796000Y-106680000D03*
X143256000Y-106680000D03*
X145796000Y-104140000D03*
X143256000Y-104140000D03*
X145796000Y-101600000D03*
X143256000Y-101600000D03*
X145796000Y-99060000D03*
X143256000Y-99060000D03*
X145796000Y-96520000D03*
X143256000Y-96520000D03*
X145796000Y-93980000D03*
X143256000Y-93980000D03*
X145796000Y-91440000D03*
X143256000Y-91440000D03*
X145796000Y-88900000D03*
X143256000Y-88900000D03*
X145796000Y-86360000D03*
X143256000Y-86360000D03*
X145796000Y-83820000D03*
X143256000Y-83820000D03*
X145796000Y-81280000D03*
X143256000Y-81280000D03*
X145796000Y-78740000D03*
X143256000Y-78740000D03*
X145796000Y-76200000D03*
X143256000Y-76200000D03*
X145796000Y-73660000D03*
X143256000Y-73660000D03*
%TD*%
D21*
%TO.C,J3*%
X198882000Y-49393000D03*
X198882000Y-138293000D03*
D26*
X196342000Y-54483000D03*
D23*
X196342000Y-57023000D03*
X196342000Y-59563000D03*
X196342000Y-62103000D03*
X196342000Y-64643000D03*
X196342000Y-67183000D03*
X196342000Y-69723000D03*
X196342000Y-72263000D03*
X196342000Y-74803000D03*
X196342000Y-77343000D03*
X196342000Y-79883000D03*
X196342000Y-82423000D03*
X196342000Y-84963000D03*
X196342000Y-87503000D03*
X196342000Y-90043000D03*
X196342000Y-92583000D03*
X196342000Y-95123000D03*
X196342000Y-97663000D03*
X196342000Y-100203000D03*
X196342000Y-102743000D03*
X196342000Y-105283000D03*
X196342000Y-107823000D03*
X196342000Y-110363000D03*
X196342000Y-112903000D03*
X196342000Y-115443000D03*
X196342000Y-117983000D03*
X196342000Y-120523000D03*
X196342000Y-123063000D03*
X196342000Y-125603000D03*
X196342000Y-128143000D03*
X196342000Y-130683000D03*
X196342000Y-133223000D03*
X193802000Y-54483000D03*
X193802000Y-57023000D03*
X193802000Y-59563000D03*
X193802000Y-62103000D03*
X193802000Y-64643000D03*
X193802000Y-67183000D03*
X193802000Y-69723000D03*
X193802000Y-72263000D03*
X193802000Y-74803000D03*
X193802000Y-77343000D03*
X193802000Y-79883000D03*
X193802000Y-82423000D03*
X193802000Y-84963000D03*
X193802000Y-87503000D03*
X193802000Y-90043000D03*
X193802000Y-92583000D03*
X193802000Y-95123000D03*
X193802000Y-97663000D03*
X193802000Y-100203000D03*
X193802000Y-102743000D03*
X193802000Y-105283000D03*
X193802000Y-107823000D03*
X193802000Y-110363000D03*
X193802000Y-112903000D03*
X193802000Y-115443000D03*
X193802000Y-117983000D03*
X193802000Y-120523000D03*
X193802000Y-123063000D03*
X193802000Y-125603000D03*
X193802000Y-128143000D03*
X193802000Y-130683000D03*
X193802000Y-133223000D03*
%TD*%
D19*
%TO.C,U13*%
X153162000Y-87889000D03*
D20*
X155702000Y-87889000D03*
X158242000Y-87889000D03*
X160782000Y-87889000D03*
X163322000Y-87889000D03*
X165862000Y-87889000D03*
X168402000Y-87889000D03*
X170942000Y-87889000D03*
X173482000Y-87889000D03*
X176022000Y-87889000D03*
X178562000Y-87889000D03*
X181102000Y-87889000D03*
X183642000Y-87889000D03*
X186182000Y-87889000D03*
X186182000Y-72649000D03*
X183642000Y-72649000D03*
X181102000Y-72649000D03*
X178562000Y-72649000D03*
X176022000Y-72649000D03*
X173482000Y-72649000D03*
X170942000Y-72649000D03*
X168402000Y-72649000D03*
X165862000Y-72649000D03*
X163322000Y-72649000D03*
X160782000Y-72649000D03*
X158242000Y-72649000D03*
X155702000Y-72649000D03*
X153162000Y-72649000D03*
%TD*%
D19*
%TO.C,U1*%
X186182000Y-119253000D03*
D20*
X186182000Y-116713000D03*
X186182000Y-114173000D03*
X186182000Y-111633000D03*
X186182000Y-109093000D03*
X186182000Y-106553000D03*
X186182000Y-104013000D03*
X186182000Y-101473000D03*
X186182000Y-98933000D03*
X186182000Y-96393000D03*
X178562000Y-96393000D03*
X178562000Y-98933000D03*
X178562000Y-101473000D03*
X178562000Y-104013000D03*
X178562000Y-106553000D03*
X178562000Y-109093000D03*
X178562000Y-111633000D03*
X178562000Y-114173000D03*
X178562000Y-116713000D03*
X178562000Y-119253000D03*
%TD*%
D19*
%TO.C,U17*%
X173482000Y-116713000D03*
D20*
X173482000Y-114173000D03*
X173482000Y-111633000D03*
X173482000Y-109093000D03*
X173482000Y-106553000D03*
X173482000Y-104013000D03*
X173482000Y-101473000D03*
X173482000Y-98933000D03*
X165862000Y-98933000D03*
X165862000Y-101473000D03*
X165862000Y-104013000D03*
X165862000Y-106553000D03*
X165862000Y-109093000D03*
X165862000Y-111633000D03*
X165862000Y-114173000D03*
X165862000Y-116713000D03*
%TD*%
D19*
%TO.C,U15*%
X159512000Y-114173000D03*
D20*
X159512000Y-111633000D03*
X159512000Y-109093000D03*
X159512000Y-106553000D03*
X159512000Y-104013000D03*
X159512000Y-101473000D03*
X159512000Y-98933000D03*
X151892000Y-98933000D03*
X151892000Y-101473000D03*
X151892000Y-104013000D03*
X151892000Y-106553000D03*
X151892000Y-109093000D03*
X151892000Y-111633000D03*
X151892000Y-114173000D03*
%TD*%
D19*
%TO.C,X1*%
X158242000Y-59944000D03*
D27*
X158242000Y-67564000D03*
X165862000Y-67564000D03*
X165862000Y-59944000D03*
%TD*%
D19*
%TO.C,RN1*%
X150622000Y-64643000D03*
D20*
X148082000Y-64643000D03*
X145542000Y-64643000D03*
X143002000Y-64643000D03*
X140462000Y-64643000D03*
%TD*%
D28*
%TO.C,C15*%
X182372000Y-63434000D03*
X182372000Y-61534000D03*
%TD*%
%TO.C,C3*%
X176276000Y-120584000D03*
X176276000Y-118684000D03*
%TD*%
%TO.C,C13*%
X187452000Y-63434000D03*
X187452000Y-61534000D03*
%TD*%
D29*
%TO.C,C12*%
X168402000Y-116713000D03*
X168402000Y-118613000D03*
%TD*%
D30*
%TO.C,C4*%
X153482000Y-59817000D03*
X155382000Y-59817000D03*
%TD*%
D28*
%TO.C,C2*%
X186182000Y-76322000D03*
X186182000Y-74422000D03*
%TD*%
D31*
%TO.C,C1*%
X150810000Y-137922000D03*
X148910000Y-137922000D03*
%TD*%
%TO.C,C10*%
X156027000Y-114168000D03*
X154127000Y-114168000D03*
%TD*%
M02*
