M48
METRIC,TZ
T1C0.400
T2C0.800
T3C1.000
T4C1.100
%
G90
G05
T1
X130048Y-133223
X137532Y-121383
X138572Y-125953
X138972Y-130323
X139502Y-127833
X139737Y-121793
X140075Y-116713
X140589Y-130175
X142377Y-130175
X144717Y-121793
X146177Y-128143
X147447Y-100203
X147447Y-105401
X148082Y-134743
X148336Y-97372
X148354Y-89175
X148844Y-135763
X149276Y-75572
X149301Y-91059
X149572Y-115504
X151198Y-96016
X153162Y-92936
X156337Y-119507
X156845Y-117729
X156852Y-97464
X157090Y-115443
X157099Y-122555
X157902Y-90104
X158114Y-93850
X158242Y-77597
X158564Y-90943
X159512Y-95835
X159646Y-116281
X159784Y-92119
X160894Y-83058
X161645Y-54330
X161645Y-58410
X162593Y-92569
X163721Y-126452
X164377Y-96872
X164489Y-117475
X164592Y-136144
X165862Y-119888
X166116Y-96133
X168604Y-107299
X168910Y-96291
X170942Y-122880
X170942Y-125918
X171704Y-102743
X172212Y-133477
X172558Y-134691
X172668Y-121954
X173482Y-127381
X175514Y-127889
X177280Y-94375
X177781Y-115317
X177873Y-121544
X179324Y-122291
X179832Y-102743
X180899Y-99695
X182118Y-112903
X182626Y-76454
X182833Y-128427
X184302Y-120523
X184912Y-89027
X184912Y-102743
X187452Y-120523
X188722Y-120523
X188812Y-102743
X189103Y-123251
X189165Y-127700
X189484Y-129413
X190119Y-110363
X190246Y-112991
X190754Y-123317
X191262Y-95928
X197900Y-59483
X199136Y-87249
X199771Y-109220
T2
X140462Y-64643
X143002Y-64643
X145542Y-64643
X148082Y-64643
X150622Y-64643
X151892Y-98933
X151892Y-101473
X151892Y-104013
X151892Y-106553
X151892Y-109093
X151892Y-111633
X151892Y-114173
X153162Y-72649
X153162Y-87889
X153162Y-124333
X153162Y-139573
X155702Y-72649
X155702Y-87889
X155702Y-124333
X155702Y-139573
X158242Y-59944
X158242Y-67564
X158242Y-72649
X158242Y-87889
X158242Y-124333
X158242Y-139573
X159512Y-98933
X159512Y-101473
X159512Y-104013
X159512Y-106553
X159512Y-109093
X159512Y-111633
X159512Y-114173
X160782Y-72649
X160782Y-87889
X160782Y-124333
X160782Y-139573
X163322Y-72649
X163322Y-87889
X163322Y-124333
X163322Y-139573
X165862Y-59944
X165862Y-67564
X165862Y-72649
X165862Y-87889
X165862Y-98933
X165862Y-101473
X165862Y-104013
X165862Y-106553
X165862Y-109093
X165862Y-111633
X165862Y-114173
X165862Y-116713
X165862Y-124333
X165862Y-139573
X168402Y-72649
X168402Y-87889
X168402Y-124333
X168402Y-139573
X170942Y-72649
X170942Y-87889
X170942Y-124333
X170942Y-139573
X173482Y-72649
X173482Y-87889
X173482Y-98933
X173482Y-101473
X173482Y-104013
X173482Y-106553
X173482Y-109093
X173482Y-111633
X173482Y-114173
X173482Y-116713
X173482Y-124333
X173482Y-139573
X176022Y-72649
X176022Y-87889
X176022Y-124333
X176022Y-139573
X178562Y-72649
X178562Y-87889
X178562Y-96393
X178562Y-98933
X178562Y-101473
X178562Y-104013
X178562Y-106553
X178562Y-109093
X178562Y-111633
X178562Y-114173
X178562Y-116713
X178562Y-119253
X178562Y-124333
X178562Y-139573
X181102Y-72649
X181102Y-87889
X181102Y-124333
X181102Y-139573
X183642Y-72649
X183642Y-87889
X183642Y-124333
X183642Y-139573
X186182Y-72649
X186182Y-87889
X186182Y-96393
X186182Y-98933
X186182Y-101473
X186182Y-104013
X186182Y-106553
X186182Y-109093
X186182Y-111633
X186182Y-114173
X186182Y-116713
X186182Y-119253
X186182Y-124333
X186182Y-139573
T3
X133477Y-54483
X133477Y-57023
X133477Y-59563
X133477Y-62103
X133477Y-64643
X133477Y-67183
X133477Y-69723
X133477Y-72263
X133477Y-74803
X133477Y-77343
X133477Y-79883
X133477Y-82423
X133477Y-84963
X133477Y-87503
X133477Y-90043
X133477Y-92583
X133477Y-95123
X133477Y-97663
X133477Y-100203
X133477Y-102743
X133477Y-105283
X133477Y-107823
X133477Y-110363
X133477Y-112903
X133477Y-115443
X133477Y-117983
X133477Y-120523
X133477Y-123063
X133477Y-125603
X133477Y-128143
X133477Y-130683
X133477Y-133223
X136017Y-54483
X136017Y-57023
X136017Y-59563
X136017Y-62103
X136017Y-64643
X136017Y-67183
X136017Y-69723
X136017Y-72263
X136017Y-74803
X136017Y-77343
X136017Y-79883
X136017Y-82423
X136017Y-84963
X136017Y-87503
X136017Y-90043
X136017Y-92583
X136017Y-95123
X136017Y-97663
X136017Y-100203
X136017Y-102743
X136017Y-105283
X136017Y-107823
X136017Y-110363
X136017Y-112903
X136017Y-115443
X136017Y-117983
X136017Y-120523
X136017Y-123063
X136017Y-125603
X136017Y-128143
X136017Y-130683
X136017Y-133223
X143256Y-73660
X143256Y-76200
X143256Y-78740
X143256Y-81280
X143256Y-83820
X143256Y-86360
X143256Y-88900
X143256Y-91440
X143256Y-93980
X143256Y-96520
X143256Y-99060
X143256Y-101600
X143256Y-104140
X143256Y-106680
X143256Y-109220
X143256Y-111760
X143256Y-114300
X145796Y-73660
X145796Y-76200
X145796Y-78740
X145796Y-81280
X145796Y-83820
X145796Y-86360
X145796Y-88900
X145796Y-91440
X145796Y-93980
X145796Y-96520
X145796Y-99060
X145796Y-101600
X145796Y-104140
X145796Y-106680
X145796Y-109220
X145796Y-111760
X145796Y-114300
X193802Y-54483
X193802Y-57023
X193802Y-59563
X193802Y-62103
X193802Y-64643
X193802Y-67183
X193802Y-69723
X193802Y-72263
X193802Y-74803
X193802Y-77343
X193802Y-79883
X193802Y-82423
X193802Y-84963
X193802Y-87503
X193802Y-90043
X193802Y-92583
X193802Y-95123
X193802Y-97663
X193802Y-100203
X193802Y-102743
X193802Y-105283
X193802Y-107823
X193802Y-110363
X193802Y-112903
X193802Y-115443
X193802Y-117983
X193802Y-120523
X193802Y-123063
X193802Y-125603
X193802Y-128143
X193802Y-130683
X193802Y-133223
X196342Y-54483
X196342Y-57023
X196342Y-59563
X196342Y-62103
X196342Y-64643
X196342Y-67183
X196342Y-69723
X196342Y-72263
X196342Y-74803
X196342Y-77343
X196342Y-79883
X196342Y-82423
X196342Y-84963
X196342Y-87503
X196342Y-90043
X196342Y-92583
X196342Y-95123
X196342Y-97663
X196342Y-100203
X196342Y-102743
X196342Y-105283
X196342Y-107823
X196342Y-110363
X196342Y-112903
X196342Y-115443
X196342Y-117983
X196342Y-120523
X196342Y-123063
X196342Y-125603
X196342Y-128143
X196342Y-130683
X196342Y-133223
T4
X182372Y-65913
X184912Y-65913
X187452Y-65913
M30
